<svg width="24" height="24" viewBox="0 0 24 24" fill="none" xmlns="http://www.w3.org/2000/svg">
	<path fill-rule="evenodd" clip-rule="evenodd" d="M18.8335 15.3536C20.3046 16.1711 21.7765 16.9887 23.2475 17.8063C23.8807 18.1578 24.1584 18.9038 23.9092 19.5842C22.6435 23.0418 18.9367 24.8669 15.4489 23.594C8.30699 20.9872 3.01312 15.693 0.406045 8.5511C-0.866979 5.06332 0.95819 1.35645 4.41584 0.0908443C5.09621 -0.158438 5.84221 0.119305 6.19463 0.752493C7.0113 2.22357 7.82895 3.6955 8.64643 5.16648C9.02965 5.85659 8.93958 6.67574 8.41507 7.26505C7.72817 8.038 7.04141 8.81078 6.35452 9.58292C7.82075 13.1534 10.8465 16.1793 14.417 17.6455C15.1892 16.9586 15.962 16.2718 16.7349 15.5849C17.3251 15.0604 18.1435 14.9703 18.8335 15.3535L18.8335 15.3536Z" fill="#e3204a" />
</svg>
