<svg width="24" height="15" viewBox="0 0 24 15" fill="none" xmlns="http://www.w3.org/2000/svg">
<path fill-rule="evenodd" clip-rule="evenodd" d="M1.875 0C0.839573 0 0 0.839229 0 1.875V5.12777C0 5.41689 0.166573 5.68054 0.428238 5.80496C1.06355 6.1068 1.50001 6.75334 1.50001 7.5C1.50001 8.24666 1.06355 8.8932 0.428238 9.19504C0.166573 9.31943 0 9.5831 0 9.87223V13.125C0 14.1608 0.839573 15 1.875 15H5.3764C5.66585 15 5.92951 14.8334 6.05405 14.5718C6.14479 14.3801 6.33932 14.25 6.56247 14.25C6.78562 14.25 6.98016 14.3801 7.07088 14.5718C7.19544 14.8334 7.45911 15 7.74854 15H22.125C23.1604 15 24 14.1608 24 13.125V9.87223C24 9.58311 23.8334 9.31946 23.5718 9.19504C22.9364 8.8932 22.5 8.24666 22.5 7.5C22.5 6.75334 22.9364 6.1068 23.5718 5.80496C23.8334 5.68057 24 5.4169 24 5.12777V1.875C24 0.839229 23.1604 0 22.125 0H7.74854C7.45909 0 7.19543 0.166573 7.07088 0.428237C6.98015 0.619924 6.78562 0.75 6.56247 0.75C6.33932 0.75 6.14478 0.61992 6.05405 0.428237C5.9295 0.166573 5.66583 0 5.3764 0H1.875ZM6.56273 2.25C6.87361 2.25 7.12523 2.50195 7.12523 2.8125V3.9375C7.12523 4.24805 6.87361 4.5 6.56273 4.5C6.25184 4.5 6.00023 4.24805 6.00023 3.9375V2.8125C6.00023 2.50195 6.25184 2.25 6.56273 2.25ZM6.56273 6C6.87361 6 7.12523 6.25195 7.12523 6.5625V8.4375C7.12523 8.74805 6.87361 9 6.56273 9C6.25184 9 6.00023 8.74805 6.00023 8.4375V6.5625C6.00023 6.25195 6.25184 6 6.56273 6ZM6.56273 10.5C6.87361 10.5 7.12523 10.752 7.12523 11.0625V12.1875C7.12523 12.498 6.87361 12.75 6.56273 12.75C6.25184 12.75 6.00023 12.498 6.00023 12.1875V11.0625C6.00023 10.752 6.25184 10.5 6.56273 10.5ZM12.0005 5.625C12.0005 5.00357 12.504 4.5 13.1255 4.5C13.7469 4.5 14.2505 5.00357 14.2505 5.625C14.2505 6.24643 13.7469 6.75 13.1255 6.75C12.504 6.75 12.0005 6.24643 12.0005 5.625ZM15.7505 9.375C15.7505 8.75357 16.254 8.25 16.8755 8.25C17.4969 8.25 18.0005 8.75357 18.0005 9.375C18.0005 9.99643 17.4969 10.5 16.8755 10.5C16.254 10.5 15.7505 9.99643 15.7505 9.375ZM17.7806 5.78019C18.0736 5.48739 18.0736 5.01261 17.7806 4.71981C17.4878 4.42685 17.0131 4.42685 16.7203 4.71981L12.2203 9.21981C11.9273 9.51261 11.9273 9.98739 12.2203 10.2802C12.5131 10.5732 12.9878 10.5732 13.2806 10.2802L17.7806 5.78019Z" fill="#e3204a"/>
</svg>
