<?xml version="1.0" encoding="utf-8"?>
<!-- Generator: Adobe Illustrator 25.2.1, SVG Export Plug-In . SVG Version: 6.00 Build 0)  -->
<svg version="1.1" id="Layer_1" xmlns="http://www.w3.org/2000/svg" xmlns:xlink="http://www.w3.org/1999/xlink" x="0px" y="0px"
	 viewBox="0 0 24.2 22" style="enable-background:new 0 0 24.2 22;" xml:space="preserve">
<style type="text/css">
	.st0{fill:#e3204a;}
</style>
<path class="st0" d="M22,12.2l-3.6,1v0.2l-0.8,0.2v-0.1l-0.4-6.2V4.9h-2.6V2.4c0-0.6-0.5-1.2-1.1-1.4l-2.1-0.6H4.5L2.2,1.1
	C1.5,1.2,1.1,1.8,1.1,2.4v2.7l-0.8,1v5.9l0.8,0.5v3.3c0,0.7,0.5,1.2,1.2,1.2c0,0,0,0,0,0h4.2v4.4h9.9l0.1-0.5l3.8-1.1l0,0.1l3.6-1
	L22,12.2z M17.6,14.3l1.1-0.3l0.7,2.5l-2.2,0.6L17.6,14.3z M15.1,5.6h1.5V7h-1.5V5.6z M14.3,5.6h0.2V7h-0.2V5.6z M10.6,1.2
	c-0.8,0.7-1.8,1-2.8,1c-1,0-2-0.3-2.8-1H10.6z M4.3,1.2c0.8,1.1,2.2,1.7,3.5,1.7c1.4,0.1,2.7-0.5,3.6-1.6l0.2,0.1
	c-0.9,1.2-2.3,1.9-3.8,1.8C6.3,3.2,4.9,2.5,4,1.3L4.3,1.2z M1.7,2.4c0-0.3,0.2-0.6,0.6-0.7l1.1-0.2C4.4,3,6.1,3.9,7.9,3.8
	c1.8,0.1,3.6-0.7,4.6-2.3l1,0.2C13.7,1.8,14,2.1,14,2.4v2.5H6.5v5.8L1.7,6.6V2.4z M13.6,5.6V7h-3.2V5.6H13.6z M9.8,5.6V7H9.6V5.6
	H9.8z M8.9,5.6V7H7.2V5.6H8.9z M0.9,11.7V6.8L6.8,12l-1.6,2.3L0.9,11.7z M6.5,16.4H2.3c-0.3,0-0.5-0.2-0.5-0.5c0,0,0,0,0,0V13
	l3.7,2.2l0.1-0.2l1,0.6L6.5,16.4z M5.9,14.4l1.3-1.8l1,0.8L7,15L5.9,14.4z M11.6,20.9H7.2v-5l0,0L9,13.3l-1.5-1.2l0.1-0.2l-0.6-0.5
	V9.7c1,1,2.2,1.8,3.5,2.2l0.2-0.6c-1.5-0.5-2.8-1.4-3.7-2.6V7.6h4.6L12,14L11.6,20.9z M15.8,20.9h-3.6l0.4-6.8l0,0l-0.2-6.4h4.2
	l0.2,2.9h-2.4v4.6l2,2L15.8,20.9z M15.2,15v-3.7H17l0.1,2.3l-0.5,2.9L15.2,15z M16.6,20.3l0.4-2.5l2.5-0.7l0.6,2.2L16.6,20.3z
	 M20.3,17.4l-1-3.7l2.3-0.6l1.6,5.6l-2.3,0.6L20.3,17.4z"/>
</svg>
