<?xml version="1.0" encoding="utf-8"?>
<!-- Generator: Adobe Illustrator 25.2.1, SVG Export Plug-In . SVG Version: 6.00 Build 0)  -->
<svg version="1.1" id="Layer_1" xmlns="http://www.w3.org/2000/svg" xmlns:xlink="http://www.w3.org/1999/xlink" x="0px" y="0px"
	 viewBox="0 0 10.7 23" style="enable-background:new 0 0 10.7 23;" xml:space="preserve">
<style type="text/css">
	.st0{fill:#e3204a;}
	.st1{fill:#FFFFFF;}
</style>
<path class="st0" d="M2.4,7.2c-0.1-0.5-0.2-1-0.3-1.5C2,5.6,2,5.4,2,5.2c0-0.4-0.2-0.7-0.5-0.9C1.2,4.1,1,3.8,0.7,3.5
	c-0.1-0.1-0.1-0.2,0-0.3c0.4-0.6,1-0.9,1.7-0.9c0.5,0,0.9,0,1.4,0V1.1c0-0.3,0-0.3,0.3-0.3h2.1c0.2,0,0.3,0.1,0.3,0.3s0,0.8,0,1.2
	c0.3,0,0.5,0,0.8,0c0.3,0,0.7,0,1,0c0.6,0.1,1.1,0.4,1.4,0.9c0.1,0.1,0.1,0.2,0,0.3c0,0,0,0,0,0c-0.3,0.3-0.7,0.7-1,1
	C8.6,4.7,8.5,4.8,8.5,5C8.3,5.6,8.2,6.3,8.1,7c0,0.1,0,0.1,0,0.2h0.3c0.3,0,0.5,0.2,0.6,0.5c0,0,0,0,0,0c0,0.7,0,1.4,0,2.2
	c0,0,0,0.1,0,0.1c-0.2,0.2,0,0.5,0,0.7c0.7,1.8,1,3.7,1,5.7c0,0.2-0.1,0.3-0.3,0.3H6v4.4h0.9c0.7,0,1.3,0.6,1.3,1.3
	c0,0.2,0,0.3-0.2,0.3c-1.8,0-3.6,0-5.4,0c-0.2,0-0.2-0.1-0.2-0.3c0-0.7,0.6-1.3,1.3-1.3h0.9c0-0.5,0-0.9,0-1.4
	c0-0.1,0.1-0.2,0.1-0.3c0-0.1,0-0.1,0-0.2c0-0.2,0-0.5,0-0.8c0,0,0-0.1,0-0.1c-0.3-0.2-0.1-0.6-0.1-0.9c0-0.2,0-0.5,0-0.7H0.7
	c-0.2,0-0.3,0-0.3-0.3c0-2,0.3-3.9,1.1-5.7C1.7,10.1,2,9.6,2.3,9H1.5C0.9,9,1,9,1,8.5v-1C1,7.3,1,7.3,1.2,7.3L2.4,7.2z M5.2,9.1H3
	c-0.1,0-0.3,0-0.3,0.1C2.5,9.5,2.3,9.7,2.1,10c-0.9,1.9-1.4,3.9-1.4,6c0,0.3,0,0.3,0.3,0.3h5.2c0.1,0,0.2,0,0.2-0.2
	c0-0.2,0-0.4,0.1-0.7c0.1-1,0.2-2.1,0.3-3.1c0-0.5,0.1-1.1,0.1-1.6c0-0.1,0.1-0.1,0.2-0.2s0.1,0.1,0.2,0.2c0,0.1,0,0.2,0,0.3
	c0.1,1.1,0.2,2.1,0.3,3.1c0.1,0.6,0.1,1.3,0.2,1.9c0,0.2,0.1,0.2,0.2,0.2c0.5,0,0.9,0,1.4,0c0.2,0,0.3-0.1,0.3-0.3
	c0-1-0.1-2.1-0.4-3.1C9,11.6,8.5,10.4,7.8,9.2C7.7,9.1,7.6,9,7.4,9L5.2,9.1z M4.4,7.5c0,0.2,0,0.5,0,0.7S4.3,8.4,4.2,8.5
	C4.2,8.4,4.1,8.3,4.1,8.2s0-0.4,0-0.7H3.6c0,0.1,0,0.3,0,0.4c0,0.1-0.1,0.1-0.1,0.2S3.3,8,3.3,8c0-0.1,0-0.3,0-0.4H2.9
	c0,0.2,0,0.5,0,0.7S2.8,8.4,2.7,8.5S2.6,8.3,2.6,8.3c0-0.2,0-0.5,0-0.7H2.1c0,0.1,0,0.2,0,0.3C2.1,8,2,8.1,1.9,8.1S1.8,8,1.8,7.9
	s0-0.2,0-0.3H1.3c0,0.3,0,0.6,0,0.9s0,0.3,0.3,0.3h7.1V7.9c0-0.4-0.1-0.4-0.5-0.4c0,0.1,0,0.3,0,0.4C8.2,8,8.1,8.1,8,8.1
	C8,8.2,7.9,8,7.9,8c0-0.1,0-0.3,0-0.4H7.4c0,0.2,0,0.5,0,0.7S7.3,8.4,7.3,8.5S7.1,8.3,7.1,8.3c0-0.2,0-0.5,0-0.7H6.7
	c0,0.1,0,0.3,0,0.4c0,0.1-0.1,0.1-0.1,0.2S6.4,8,6.4,8c0-0.1,0-0.3,0-0.4C5.9,7.5,5.9,7.5,5.9,7.9c0,0.1,0,0.2,0,0.4
	c0,0.1-0.1,0.2-0.1,0.2C5.7,8.4,5.7,8.3,5.6,8.3c0-0.1,0-0.1,0-0.2V7.6H5.1c0,0.1,0,0.3,0,0.4C5.1,8,5,8.1,5,8.1S4.8,8,4.8,8
	c0-0.1,0-0.3,0-0.4H4.4z M5.2,5.4C5.1,5.6,5,5.8,4.9,6C4.8,6.1,4.6,6.2,4.5,6.2H2.8l-0.3,0c0,0.3,0.1,0.5,0.1,0.7S2.8,7.2,3,7.2h4.5
	c0.1,0,0.2-0.1,0.3-0.1c0.1-0.3,0.1-0.6,0.2-0.9H7.6c-0.5,0-1.1,0-1.6,0c-0.2,0-0.4-0.1-0.5-0.3C5.4,5.7,5.3,5.6,5.2,5.4z M8.2,4.8
	h-6c0.1,0.3,0.1,0.6,0.2,0.8s0.1,0.2,0.2,0.2h1.8c0.1,0,0.2-0.1,0.3-0.2C4.8,5.5,4.9,5.3,5,5.1s0.2-0.2,0.4,0s0.2,0.4,0.4,0.6
	c0,0.1,0.1,0.1,0.2,0.1c0.6,0,1.3,0,1.9,0C7.9,5.8,8,5.8,8,5.7C8.1,5.4,8.2,5.2,8.2,4.8L8.2,4.8z M7.3,4.5c0.4,0.1,0.4,0.1,0.4-0.4
	V2.6H7.3V4.5z M2.7,4.5h0.4v-2H2.7V4.5z M8.1,9.1L8.7,10V9.5C8.7,9.1,8.6,9,8.1,9.1L8.1,9.1z"/>
<path class="st1" d="M7.3,4.5v-2h0.4v1.6C7.7,4.6,7.7,4.6,7.3,4.5z"/>
<path class="st1" d="M2.7,4.5v-2h0.4v2H2.7z"/>
</svg>
