<?xml version="1.0" encoding="utf-8"?>
<!-- Generator: Adobe Illustrator 25.2.1, SVG Export Plug-In . SVG Version: 6.00 Build 0)  -->
<svg version="1.1" id="Layer_1" xmlns="http://www.w3.org/2000/svg" xmlns:xlink="http://www.w3.org/1999/xlink" x="0px" y="0px"
	 viewBox="0 0 25 21.1" style="enable-background:new 0 0 25 21.1;" xml:space="preserve">
<style type="text/css">
	.st0{fill:#e3204a;}
</style>
<g>
	<path class="st0" d="M22.7,17H2.3c-1,0-1.8-0.8-1.8-1.7c0,0,0,0,0,0V2c0-1,0.8-1.7,1.7-1.7h20.3c1,0,1.7,0.8,1.8,1.7v13.2
		C24.4,16.2,23.7,17,22.7,17C22.7,17,22.7,17,22.7,17z M2.3,0.9C1.7,0.9,1.1,1.4,1.1,2v13.2c0,0.7,0.5,1.2,1.2,1.2h20.3
		c0.7,0,1.2-0.5,1.2-1.2V2c0-0.7-0.5-1.2-1.2-1.2L2.3,0.9z"/>
	<path class="st0" d="M24.1,14.1H0.9c-0.1,0-0.3-0.1-0.3-0.3c0-0.1,0.1-0.3,0.3-0.3c0,0,0,0,0,0h23.3c0.1,0,0.3,0.1,0.3,0.3
		C24.4,14,24.3,14.1,24.1,14.1z"/>
	<path class="st0" d="M9.6,20.8c-0.1,0-0.3-0.1-0.3-0.3l0,0v-3.8c0-0.1,0.1-0.3,0.3-0.3c0.1,0,0.3,0.1,0.3,0.3v3.8
		C9.9,20.6,9.7,20.8,9.6,20.8z"/>
	<path class="st0" d="M15.4,20.8c-0.1,0-0.3-0.1-0.3-0.3l0,0v-3.8c0-0.1,0.1-0.3,0.3-0.3c0.1,0,0.3,0.1,0.3,0.3v3.8
		C15.7,20.6,15.6,20.8,15.4,20.8z"/>
	<path class="st0" d="M18,20.8H7c-0.2,0-0.3-0.2-0.2-0.3c0-0.1,0.1-0.2,0.2-0.2h11c0.2,0,0.3,0.2,0.2,0.3
		C18.2,20.7,18.1,20.7,18,20.8z"/>
	<path class="st0" d="M6.6,11.8c-2.3,0-4.1-1.9-4.1-4.2c0-1.1,0.4-2.1,1.2-2.9c0.1,0,0.1-0.1,0.2-0.1c0.1,0,0.1,0,0.2,0.1l2.6,2.7
		h3.7c0.1,0,0.3,0.1,0.3,0.3v0C10.7,10,8.9,11.8,6.6,11.8z M3.9,5.4c-1.3,1.5-1.1,3.7,0.3,5s3.7,1.1,5-0.3c0.5-0.6,0.8-1.3,0.9-2.1
		H6.6c-0.1,0-0.1,0-0.2-0.1L3.9,5.4z"/>
	<path class="st0" d="M7.2,7C7.1,7,7,7,7,6.9L4.3,4.2c-0.1-0.1-0.1-0.3,0-0.4C5,3,6.1,2.6,7.2,2.6c0.1,0,0.3,0.1,0.3,0.3v3.9
		c0,0.1-0.1,0.2-0.2,0.2L7.2,7z M4.8,4l2.1,2V3.1C6.1,3.2,5.4,3.5,4.8,4z"/>
	<path class="st0" d="M12.1,7H8.2C8.1,7,8,6.9,8,6.7c0,0,0,0,0,0V2.8c0-0.1,0.1-0.3,0.3-0.3l0,0c2.3,0,4.1,1.9,4.1,4.1c0,0,0,0,0,0
		C12.4,6.9,12.3,7,12.1,7L12.1,7z M8.5,6.4h3.3c-0.1-1.8-1.5-3.2-3.3-3.3V6.4z"/>
	<path class="st0" d="M3.9,10.7c-0.1,0-0.1,0-0.2-0.1c-0.1-0.1-0.1-0.3,0-0.4c0,0,0,0,0,0l2.7-2.7c0.1-0.1,0.3-0.1,0.4,0
		c0,0,0,0,0,0c0.1,0.1,0.1,0.3,0,0.4c0,0,0,0,0,0l-2.7,2.7C4,10.7,3.9,10.7,3.9,10.7z"/>
	<path class="st0" d="M22.2,3.3h-8.6c-0.2,0-0.3-0.2-0.2-0.3c0-0.1,0.1-0.2,0.2-0.2h8.6c0.2,0,0.3,0.1,0.3,0.2
		c0,0.2-0.1,0.3-0.2,0.3C22.3,3.3,22.3,3.3,22.2,3.3z"/>
	<path class="st0" d="M22.2,5h-8.6c-0.1,0-0.3-0.1-0.3-0.3c0-0.1,0.1-0.3,0.3-0.3h8.6c0.1,0,0.3,0.1,0.3,0.3C22.5,4.9,22.4,5,22.2,5
		C22.2,5,22.2,5,22.2,5z"/>
	<path class="st0" d="M15.4,11.8h-1.7c-0.1,0-0.3-0.1-0.3-0.3v0V8.9c0-0.1,0.1-0.3,0.3-0.3h0h1.7c0.1,0,0.3,0.1,0.3,0.3v0v2.6
		C15.6,11.7,15.5,11.8,15.4,11.8L15.4,11.8z M13.9,11.3h1.2V9.2h-1.2V11.3z"/>
	<path class="st0" d="M18.8,11.8h-1.7c-0.1,0-0.3-0.1-0.3-0.3c0,0,0,0,0,0V7.8c0-0.1,0.1-0.3,0.3-0.3c0,0,0,0,0,0h1.7
		c0.1,0,0.3,0.1,0.3,0.3v0v3.8C19.1,11.7,19,11.8,18.8,11.8L18.8,11.8z M17.4,11.3h1.2V8h-1.2L17.4,11.3z"/>
</g>
<path class="st0" d="M22.2,12.1h-1.7c-0.1,0-0.3-0.1-0.3-0.3v0V7c0-0.1,0.1-0.3,0.3-0.3l0,0h1.7c0.1,0,0.3,0.1,0.3,0.3c0,0,0,0,0,0
	v4.9C22.5,12,22.4,12.1,22.2,12.1C22.2,12.1,22.2,12.1,22.2,12.1z M20.8,11.6H22V7.2h-1.2L20.8,11.6L20.8,11.6z"/>
</svg>
