<svg xmlns="http://www.w3.org/2000/svg" xmlns:xlink="http://www.w3.org/1999/xlink" viewBox="0 0 665.74 606.56"><defs><style>.cls-1{isolation:isolate;}.cls-14,.cls-18,.cls-2{fill:#fbbf6e;}.cls-11,.cls-12,.cls-13,.cls-14,.cls-2{fill-rule:evenodd;}.cls-13,.cls-19,.cls-3{fill:#801417;}.cls-15,.cls-16,.cls-4,.cls-5{fill:none;}.cls-19,.cls-4{stroke:#801417;stroke-width:17px;}.cls-4{stroke-linecap:round;}.cls-15,.cls-16,.cls-18,.cls-19,.cls-4{stroke-miterlimit:10;}.cls-6{fill:url(#linear-gradient);}.cls-7{fill:url(#linear-gradient-2);}.cls-8{fill:url(#linear-gradient-3);}.cls-9{fill:url(#linear-gradient-4);}.cls-10{fill:url(#linear-gradient-5);}.cls-11,.cls-17{fill:#600a0d;}.cls-12{fill:#fff;opacity:0.3;}.cls-14{mix-blend-mode:multiply;}.cls-15{stroke:#fff;}.cls-15,.cls-16{stroke-width:2.19px;}.cls-16,.cls-18{stroke:#fbbf6e;}.cls-18{stroke-width:5px;}</style><linearGradient id="linear-gradient" x1="-6259.86" y1="-2704.54" x2="-6057.19" y2="-2501.88" gradientTransform="matrix(-0.71, -0.71, -0.71, 0.71, -5858.66, -2415.17)" gradientUnits="userSpaceOnUse"><stop offset="0" stop-color="#cee864"/><stop offset="0.09" stop-color="#b5e25b"/><stop offset="0.28" stop-color="#88d84a"/><stop offset="0.42" stop-color="#6bd140"/><stop offset="0.5" stop-color="#61cf3c"/><stop offset="0.59" stop-color="#40c443"/><stop offset="0.69" stop-color="#25bb49"/><stop offset="0.79" stop-color="#11b54d"/><stop offset="0.89" stop-color="#06b14f"/><stop offset="1" stop-color="#02b050"/></linearGradient><linearGradient id="linear-gradient-2" x1="-6126.05" y1="-2622.44" x2="-5923.39" y2="-2419.78" xlink:href="#linear-gradient"/><linearGradient id="linear-gradient-3" x1="-6095.31" y1="-2591.7" x2="-5927.45" y2="-2423.84" xlink:href="#linear-gradient"/><linearGradient id="linear-gradient-4" x1="-6127.85" y1="-2626.15" x2="-5925.18" y2="-2423.49" xlink:href="#linear-gradient"/><linearGradient id="linear-gradient-5" x1="-6097.11" y1="-2595.41" x2="-5929.25" y2="-2427.56" xlink:href="#linear-gradient"/></defs><g class="cls-1"><g id="Layer_1" data-name="Layer 1"><path class="cls-2" d="M652.08,470.2c-13.27,97-35.89,99.58-118.78,115.14,0,0,95.55-44.84,118.78-115.14"/><path class="cls-3" d="M618.18,555.26c30.06-24.38,28.15-73.77,34.32-83.14,0,.19-4.55,65.49-31.14,87-26.31,21.34-87.8,28.44-88,28.46,20.29-9.74,60.12-12.36,84.79-32.37"/><path class="cls-4" d="M83.91,559.36c-2.67,7.5-6.38,13.14-9.17,20.9-4,11.17-10.7-10.68-37.3.4"/><path class="cls-5" d="M223.69,61.09l1.7.58Z"/><path class="cls-6" d="M224.48,98.89l.06-.06.06-.07Z"/><path class="cls-7" d="M226.18,62.85c-1.09-.41-2.18-.8-3.28-1.18C224,62.06,225.09,62.44,226.18,62.85Z"/><path class="cls-8" d="M226.18,62.85c-1.09-.41-2.18-.8-3.28-1.18C224,62.06,225.09,62.44,226.18,62.85Z"/><path class="cls-9" d="M224,60.72l1.12.37Z"/><path class="cls-10" d="M224,60.72l1.12.37Z"/><path class="cls-11" d="M446.72,24.84c6.37-1.57,15-1.66,25.53,3.19,68.86,31.8-60.71,128.24-119.81,145.53,80.11-20,197.08-95.49,127.71-156.93-12.47-11.06-24.88-9.9-33.6-3.94a32.76,32.76,0,0,0-10.09,6.6,23.67,23.67,0,0,0-6.09,9.44,17.28,17.28,0,0,0-.24,10.45l.13.43c1.62,4.9,5.58,9.16,12.22,11.73,25.7,10,30.74-11,30.76-11.07a5.43,5.43,0,0,0-10.56-2.53s-2.16,9-16.3,3.5c-3.32-1.28-5.19-3.1-5.84-5.05l-.08-.21a6.73,6.73,0,0,1,.21-3.87A13,13,0,0,1,444,27a19.86,19.86,0,0,1,2.7-2.2"/><path class="cls-11" d="M497.26,50.31a3.7,3.7,0,0,1,3.53,4C497.63,94,587.16,66.52,616.17,44.52c-37.79,31.14-114,60.29-122.68,10.11a3.71,3.71,0,0,1,3.77-4.32Z"/><path class="cls-2" d="M463.94,150.21s24.74,40.1,13.16,81.43-22.86,73.84-22,105.87c1.26,46.54,1.67,62.83,17.89,103.74,16.88-13.18,40-34.69,62.89-66.91A345.61,345.61,0,0,0,552.25,343c22-48.46,25.31-61.65-3.39-100.55C539.57,229.89,536,221.73,536,221.73s21.63-45,26.46-73.13S565,116.23,565,116.23s-48.32,51.61-101,34"/><path class="cls-12" d="M463.94,150.21s24.74,40.1,13.16,81.43-22.86,73.84-22,105.87c1.26,46.54,1.67,62.83,17.89,103.74,5.78-4.52,12.3-10,19.28-16.57-24.74-81.23-6.09-162.72.88-207.51,5.24-33.66-9.05-54-21.18-64.79a70.09,70.09,0,0,1-8-2.17"/><path class="cls-12" d="M540.37,366.48c4.31-7.77,8.34-15.64,11.88-23.45,22-48.46,25.31-61.65-3.39-100.55C539.57,229.89,536,221.73,536,221.73s21.63-45,26.46-73.13S565,116.23,565,116.23a145.22,145.22,0,0,1-35.7,26.29c2,11,2.72,24.38-.21,38.09-7.3,34.15-17.52,51.08-17.52,51.08s36.75,52.39,28.84,134.79"/><path class="cls-13" d="M515.47,283.63s-4.36,95.79-225.63,132.67c-4.07.67-7.86,1.32-11.51,1.94l0-.28c76.77-19.29,209.74-63.54,237.12-134.33"/><path class="cls-14" d="M553,165.92a22.53,22.53,0,0,1,6,2.08c-3.63,13.46-11.86,31.18-16.87,41.37A22.43,22.43,0,0,1,553,165.92"/><path class="cls-2" d="M460.45,375.89a22.43,22.43,0,1,1-26.33,17.68,22.44,22.44,0,0,1,26.33-17.68"/><path class="cls-11" d="M552.79,106.19s-1.25,6.35,2.68,8.27a80,80,0,0,0,7.68,3.24c-3.71,38.09-13.76,78-28.9,104.5,8.65,31.44,45.55,35.14,22,104.18-21.68,63.46-86.43,124.17-86.43,124.17s89.42-84,100.19-138.68C581,256,550,249.32,537.91,219c17.18-24,38.4-84.49,30.15-104.36,0,0-9.89-.8-11.29-8.24s-5.11-7.61-10.16.58c-16.49,26.7-55.27,48.5-86.87,37.42,10.32,23.78,20.48,58.19,15.76,81.17A68.7,68.7,0,0,1,471,239.41c-2.89,6.62-6.48,12.94-9.52,19.5a117.71,117.71,0,0,0-8.61,25.72c-6.87,32.71-1.79,73.26,3.82,105.74q.66,3.76,1.3,7.53c-.48-13-.65-26-.42-39,.37-21.22,1.67-45.68,7.27-66.18,4.15-15.23,9-29.85,14.11-44.76,3-8.83,6.25-18.28,7.08-27.62a60.61,60.61,0,0,0-1.39-18.55c-1.09-5-2.42-9.94-3.94-14.82-3.15-10.08-8.87-28.42-18-39.82,36,9.89,72.1-9.3,90.07-41"/><path class="cls-13" d="M431.81,375a13.54,13.54,0,1,1-15.89,10.67A13.54,13.54,0,0,1,431.81,375"/><path class="cls-13" d="M489.84,349.25a11.21,11.21,0,1,1-13.17,8.84,11.22,11.22,0,0,1,13.17-8.84"/><path class="cls-14" d="M468.92,430.55c1.23,3.39,2.59,6.94,4.08,10.7,16.88-13.18,40-34.69,62.89-66.91A345.61,345.61,0,0,0,552.25,343c19.47-43,24.31-58.22,5.13-88.25-9.22,38.92-32.06,103.75-88.46,175.77"/><path class="cls-15" d="M260.94,61.37c22.17,9.39,40.5,21,57.94,37.69"/><path class="cls-16" d="M260.94,61.37A165.79,165.79,0,0,1,293,77.71"/><path class="cls-16" d="M266.52,66.38a133,133,0,0,1,12.25,5.34"/><path class="cls-16" d="M271.88,71.76c4.85,1.91,7.24,3,11.91,5.25"/><path class="cls-16" d="M277,77.49c4.72,1.88,7.05,2.91,11.58,5.13"/><path class="cls-16" d="M281.89,83.59A132.75,132.75,0,0,1,302,93.21"/><path class="cls-16" d="M286.51,90c4.47,1.75,6.67,2.71,11,4.76"/><path class="cls-16" d="M290.84,96.83c4.36,1.67,6.5,2.57,10.68,4.52"/><path class="cls-16" d="M294.86,104c4.27,1.56,6.36,2.41,10.43,4.23"/><path class="cls-16" d="M298.57,111.48A144.47,144.47,0,0,1,324.26,123"/><path class="cls-16" d="M298.57,111.48A144.47,144.47,0,0,1,324.26,123"/><path class="cls-16" d="M301.79,119c4.1,1.31,6.1,2,10,3.54"/><path class="cls-16" d="M304.54,126.13c4,1.21,6,1.86,9.85,3.26"/><path class="cls-16" d="M307,133.48c4,1.1,5.93,1.7,9.72,3"/><path class="cls-16" d="M309.28,141A172.93,172.93,0,0,1,326.35,146"/><path class="cls-16" d="M311.26,148.61c3.9.87,5.81,1.33,9.51,2.31"/><path class="cls-16" d="M313,156.36c3.87.74,5.76,1.13,9.43,2"/><path class="cls-16" d="M314.42,164.21c3.84.6,5.72.92,9.35,1.6"/><path class="cls-16" d="M315.59,172.13c10.08,1.24,14.83,1.94,23.3,3.46"/><path class="cls-16" d="M315.59,172.13c10.08,1.24,14.83,1.94,23.3,3.46"/><path class="cls-16" d="M316.48,180.11c3.81.33,5.67.5,9.27.86"/><path class="cls-16" d="M317.1,188.13l9.25.48"/><path class="cls-16" d="M317.42,196.18c3.81,0,5.66.07,9.26.09"/><path class="cls-16" d="M317.46,204.22c6.93-.15,10.25-.28,16.44-.62"/><path class="cls-16" d="M317.21,212.26c3.83-.23,5.69-.36,9.31-.67"/><path class="cls-16" d="M316.61,220.6c3.86-.39,5.74-.62,9.38-1.11"/><path class="cls-16" d="M315.68,228.86c3.89-.55,5.79-.86,9.47-1.54"/><path class="cls-16" d="M314.42,237a149.9,149.9,0,0,0,24-5.92"/><path class="cls-16" d="M314.42,237a149.9,149.9,0,0,0,24-5.92"/><path class="cls-16" d="M312.84,245.11c4-.85,5.94-1.33,9.72-2.36"/><path class="cls-16" d="M311,253.07c4.05-1,6-1.56,9.87-2.75"/><path class="cls-16" d="M308.75,260.88c4.13-1.14,6.15-1.76,10.05-3.12"/><path class="cls-16" d="M306.26,268.54a123,123,0,0,0,18.19-6.75"/><path class="cls-16" d="M303.49,276c4.29-1.38,6.39-2.14,10.45-3.79"/><path class="cls-16" d="M300.44,283.34c4.38-1.49,6.52-2.32,10.68-4.1"/><path class="cls-16" d="M297.13,290.44c4.47-1.59,6.66-2.47,10.9-4.37"/><path class="cls-16" d="M293.56,297.33a131.57,131.57,0,0,0,28-13.95"/><path class="cls-16" d="M293.56,297.33a131.57,131.57,0,0,0,28-13.95"/><path class="cls-16" d="M289.74,304a121.32,121.32,0,0,0,11.39-4.85"/><path class="cls-16" d="M285.68,310.4a121.88,121.88,0,0,0,11.64-5"/><path class="cls-16" d="M281.4,316.55a116.51,116.51,0,0,0,11.88-5.18"/><path class="cls-16" d="M276.89,322.41A117.21,117.21,0,0,0,298.5,312"/><path class="cls-16" d="M272.18,328a115.7,115.7,0,0,0,12.41-5.35"/><path class="cls-16" d="M267.26,333.24A117.18,117.18,0,0,0,280,327.86"/><path class="cls-16" d="M262.15,338.18a116,116,0,0,0,13-5.38"/><path class="cls-15" d="M256.85,342.77C280.5,333.53,299,321.16,317,303.34"/><path class="cls-16" d="M256.85,342.77A143.77,143.77,0,0,0,290.41,326"/><path class="cls-17" d="M225.58,112.76v1.14c0,3.2-1.21,5.8-2.7,5.8s-2.71-2.6-2.71-5.8v-16a7.92,7.92,0,0,1,1.53-5.21,1.92,1.92,0,0,1,2.36,0,4.66,4.66,0,0,1,.94,1.61,4,4,0,0,0,1.48,1.93c.62.35,1.1,0,1.07-.7l-.09-3.18a9.46,9.46,0,0,0-.85-4.37c-1.83-3-7.59-3.19-8.31,2.82a70.49,70.49,0,0,0-.23,7.14c-.09,4.48-.3,8.94-.41,13.41-.2,7.68,8.15,229.17,9.43,229.17s1.48-210.77,1.35-215.58c-.1-3.78-.22-7.56-.34-11.33a.91.91,0,0,0-.44-.7c-.37-.2-.65-.39-.94-.57C226.09,112,225.58,112.13,225.58,112.76Z"/><path class="cls-18" d="M254.71,58.55l-1.12-.37c-1.48-.48-3-.94-4.45-1.38a140.63,140.63,0,0,1,16.94,13.84c16.55,15.77,29.16,36.5,37.47,61.07,15.84,46.8,15.71,103-3.93,148-12,27.39-29.4,50.8-50.3,66.06,2.13-.61,4.24-1.28,6.34-2C290.38,316,314.49,266,317.2,212.32c1.69-33.23-4.3-67.31-16.64-96.35a146,146,0,0,0-40.88-55.66h0c-1.08-.41-2.18-.79-3.27-1.18Z"/><path class="cls-19" d="M245.05,105c-5.58-1.47-11.32-.58-16.76,1.35a.93.93,0,0,1-1.33-.88c0-1-.09-1.89-.13-2.75a1.83,1.83,0,0,1,1.24-1.75,43.27,43.27,0,0,1,4.29-1c21.83-4.12,35.76,17.06,39,35.82.61,3.49-3.06.8-3.4-1.19C265.65,121.23,259,108.69,245.05,105Z"/><path class="cls-19" d="M269.27,340.61c50.94-22.4,87.65-73.77,91.35-129.33A160.78,160.78,0,0,0,340.53,123C325,95.17,300.06,74.4,271.26,61.21c-28.3-13-59.92-17.66-90.57-11.61a137.9,137.9,0,0,0-41.2,15.52c-13.35,7.6-26.66,17-37.24,28.23a179.13,179.13,0,0,0-14,17.42c-4.57,6.24-9.07,12.85-11.91,20.1-2.43,6.21-3.71,14.38,2.77,18.62,5.87,3.84,14.14,3,20.73,2.11,15.18-2,30.07-7.2,44.39-12.47,15.23-5.62,30.2-11.94,45-18.63q10.74-4.86,21.34-10a20.53,20.53,0,0,1,0-5.67c-23.42,11.55-49.7,23.41-74.32,32.14-11.67,4.13-23.67,8.07-35.94,9.94-5.46.83-12.17,1.81-17.41-.47-5.76-2.51-4.32-9-2.51-13.74,5.18-13.57,15.63-25.48,25-36.38l-.06.06.13-.13-.07.07c17.1-16.78,37.4-30.67,60.17-38.43a135.6,135.6,0,0,1,68.55-4.7,152,152,0,0,1,19.5,5l1.12.37,1.7.58c1.09.39,2.19.77,3.27,1.18a166.6,166.6,0,0,1,39.21,21.13,137.22,137.22,0,0,1,45.25,56c19.12,42.9,19,94.44-4.75,135.59-20.43,35.45-53.92,63.63-93.94,73.78Z"/><path class="cls-4" d="M246.63,346.46C229,352,211.48,357.85,194.68,365.52,178.27,373,161.14,382.26,148.13,395c-6.62,6.46-17.15,25.69-19.47,34.73"/><path d="M157.48,475.28q4.78-8.73,4.62-12.86a15.82,15.82,0,0,0-2.8-7.33,30,30,0,0,0-6.93-7.09,50.18,50.18,0,0,0-10.88-6.1,69.79,69.79,0,0,0-14.34-4.2q-4-.82-11.7,0t-17.31,2.72q-9.57,1.89-20,4.78t-19.45,6.18a109.09,109.09,0,0,0-15.75,7q-6.68,3.71-9,7.17a5.23,5.23,0,0,0-.33,4.2A21.41,21.41,0,0,0,35.74,475a13.51,13.51,0,0,0,3.21,4c1.21,1,2.31,1,3.3.16a38.71,38.71,0,0,1,7.5-5.19c3.24-1.82,6.92-3.68,11-5.61s8.62-3.81,13.51-5.69,9.87-3.62,14.92-5.27q-4.94,5.77-11.29,13.27T65.08,486q-6.51,7.75-12.36,15.08T43.07,514q-6.42-.15-11.54.17t-6.92,1.32A14.88,14.88,0,0,0,19.83,520a38.75,38.75,0,0,0-4,6.92,33.74,33.74,0,0,0-2.47,7.67,12,12,0,0,0,.25,6.51q.64,2.15,3.95,5.28a40.94,40.94,0,0,0,8.57,6,60.7,60.7,0,0,0,12.45,4.95,57,57,0,0,0,15.74,2.06q11.05,0,23.33-6A138.84,138.84,0,0,0,102,537.85,221.46,221.46,0,0,0,125.09,517a266.8,266.8,0,0,0,19.29-22.17A153.35,153.35,0,0,0,157.48,475.28Zm-29.67,13.85q-6.44,8.75-14.1,17.56T97.64,523.5a144,144,0,0,1-16.9,13.93,80.94,80.94,0,0,1-16.65,9.15A30.88,30.88,0,0,1,49,549a17.29,17.29,0,0,1-6.84-2.88,54.77,54.77,0,0,1-7.67-5.85,46.67,46.67,0,0,1-6-6.51q-2.39-3.22-1.89-4.87c.22-.77,1.34-1.48,3.38-2.14a57.88,57.88,0,0,1,7.83-1.81,22.08,22.08,0,0,0,.82,5.93,26.06,26.06,0,0,0,2.06,5.28,10,10,0,0,0,2.56,3.29,1.59,1.59,0,0,0,2.31,0,5.7,5.7,0,0,0,1.15-1.81c.33-.77.83-1.79,1.48-3.05s1.54-2.89,2.64-4.86,2.58-4.4,4.45-7.26q6.27-.82,11.63-1.4T75.55,520q4.62-.83,5.28-2.23c.43-.93-.83-1.51-3.8-1.73l-16.48-1.15L69,503.31q7.25-9.4,13.68-17.56T94.1,471.16q5-6.42,8.4-11.21a42,42,0,0,0,4.54-7.58q7.08-1.81,13.6-2.89a91.18,91.18,0,0,1,11.7-1.23A31.11,31.11,0,0,1,141,449a7.54,7.54,0,0,1,4.78,3.05q1.16,2.31-.83,7.83a80.61,80.61,0,0,1-6.34,13A182.74,182.74,0,0,1,127.81,489.13Z"/><path d="M185.43,471.08a7.44,7.44,0,0,0-5-.74,6.32,6.32,0,0,0-3.71,2.22,10.29,10.29,0,0,0-2,3.88,10.18,10.18,0,0,0-.25,4.28,6.7,6.7,0,0,0,1.49,3.47,6,6,0,0,0,3.29,1.81,14.55,14.55,0,0,0,4.37.33,12.27,12.27,0,0,0,4.21-1.07,5.6,5.6,0,0,0,2.8-2.56,7.19,7.19,0,0,0,.25-3.95,11.35,11.35,0,0,0-1.82-4.37A10.34,10.34,0,0,0,185.43,471.08Z"/><path d="M292,484.19a6,6,0,0,0,3.3,1.81,14.53,14.53,0,0,0,4.37.33,12.27,12.27,0,0,0,4.2-1.07,5.6,5.6,0,0,0,2.8-2.56,7.19,7.19,0,0,0,.25-3.95,11.33,11.33,0,0,0-1.81-4.37,10.46,10.46,0,0,0-3.63-3.3,7.43,7.43,0,0,0-5-.74,6.35,6.35,0,0,0-3.71,2.22,10.59,10.59,0,0,0-2,3.88,10.35,10.35,0,0,0-.24,4.28A6.69,6.69,0,0,0,292,484.19Z"/><path d="M455.7,486a14.53,14.53,0,0,0,4.37.33,12.27,12.27,0,0,0,4.2-1.07,5.6,5.6,0,0,0,2.8-2.56,7.19,7.19,0,0,0,.25-3.95,11.33,11.33,0,0,0-1.81-4.37,10.46,10.46,0,0,0-3.63-3.3,7.43,7.43,0,0,0-5-.74,6.35,6.35,0,0,0-3.71,2.22,10.59,10.59,0,0,0-2,3.88,10.35,10.35,0,0,0-.24,4.28,6.69,6.69,0,0,0,1.48,3.47A6,6,0,0,0,455.7,486Z"/><path d="M633.49,511.8a4.43,4.43,0,0,0-2.39.74,11.85,11.85,0,0,0-3,2.48,118.31,118.31,0,0,1-12,11.29,131.35,131.35,0,0,1-12.86,9.48,52.14,52.14,0,0,1-11,5.6q-4.87,1.65-6.51-.5c-1.44-1.86-1.24-4.25.57-7.16a59.87,59.87,0,0,1,7.5-9.4q4.78-5,10.39-10.47a108.13,108.13,0,0,0,9.4-10.22,3.07,3.07,0,0,0,.41-3.05,14,14,0,0,0-1.81-3.71,10.93,10.93,0,0,0-3-3,3.85,3.85,0,0,0-3-.82q-4.79.82-7.26,1.4a18.91,18.91,0,0,1-4.28.57,13.66,13.66,0,0,0,1-6.92,7,7,0,0,0-.74-2.64,18.39,18.39,0,0,0-1.9-3.21,9,9,0,0,0-2.72-2.47,4.19,4.19,0,0,0-3.55-.25,6.86,6.86,0,0,0-3.46,2.64,17.64,17.64,0,0,0-2.63,4.94,15.86,15.86,0,0,0-.91,5.86,10.39,10.39,0,0,0,1.08,4.49,81.52,81.52,0,0,1-9.16.86,110.71,110.71,0,0,1-15.25-.33,23.87,23.87,0,0,0,.5-5.93c-.33-3.63-1.27-6.23-2.81-7.83a6.37,6.37,0,0,0-5.1-2.22,10.78,10.78,0,0,0-5.78,2.38,17.93,17.93,0,0,0-4.94,5.86,50.79,50.79,0,0,0-12.94,7.91,107.87,107.87,0,0,0-13.19,12.52c-1.39,1.56-2.69,3.11-3.93,4.68a165.89,165.89,0,0,1-14.37,12.8,127.29,127.29,0,0,1-13.44,9.4A50.1,50.1,0,0,1,470,542.54q-4.29,1.32-5.44,0c-.88-.88-.72-2.88.5-6a39.57,39.57,0,0,1,6.1-10.14q.81-1,3.62-4.21l6.84-7.82q4-4.62,9.06-10.23T501,492.6q5.28-5.94,10.39-11.8t9.47-10.87q4.38-5,7.59-8.9t4.53-5.86c.55-.76.42-2.06-.41-3.87a26.47,26.47,0,0,0-3.21-5.27,15.93,15.93,0,0,0-4.12-3.88q-2.16-1.32-3.13.33c-1.63,2.55-3.78,5.6-6.45,9.19l-.1.13c-.18.24-.36.49-.55.73-.36.48-.73,1-1.11,1.46v0l-3.69,4.81a0,0,0,0,0,0,0l-.71.91q-2.07,2.61-4.3,5.36-5.36,6.6-11,13.35t-10.63,12.78q-4.95,6-8.74,10.8t-5.27,7.09c-1.13,1.78-2.17,3.56-3.16,5.33-.21.2-.42.39-.64.61-1.87,1.86-4.12,4-6.75,6.42s-5.42,4.84-8.33,7.26-5.8,4.75-8.65,7a96.36,96.36,0,0,1-7.92,5.69,30.35,30.35,0,0,1-6.27,3.21c-1.75.61-2.91.47-3.45-.41a5.79,5.79,0,0,1-.66-5.19,29.76,29.76,0,0,1,3-7.17,74.63,74.63,0,0,1,5.52-8.33c2.19-2.9,4.5-5.82,6.92-8.73s4.78-5.72,7.09-8.41,4.29-5.08,5.94-7.17a4,4,0,0,0,.25-3.63,13.27,13.27,0,0,0-2.31-4,9.52,9.52,0,0,0-3.47-2.72,2.56,2.56,0,0,0-3,.33q-3.3,3.47-6.76,7.33t-6.76,7.84c-2.19,2.63-4.25,5.33-6.17,8.07-.64.92-1.24,1.82-1.81,2.72q-4.43,4.74-10.14,10T401,534.3a40.94,40.94,0,0,1-9.31,5.53q-4,1.56-5-1.08c-.33-.88-.08-2.14.74-3.79a33,33,0,0,1,3.54-5.44q2.31-3,5.28-6.18c2-2.15,3.92-4.15,5.85-6s3.71-3.52,5.36-5l3.62-3.13c1.1-.87,1.43-2.17,1-3.87a15.09,15.09,0,0,0-2.4-4.95,15.44,15.44,0,0,0-4-3.87q-2.22-1.49-3.7-.66a14.49,14.49,0,0,0-3.22-5,18.83,18.83,0,0,0-4.37-3.3,14.06,14.06,0,0,0-4.61-1.56,11.88,11.88,0,0,0-4,0,21.4,21.4,0,0,0-6.43,3.21q-4.11,2.73-9,6.68c-1.77,1.44-3.55,3-5.36,4.57l-1.77,0a4.6,4.6,0,0,1,.52.47l.67,0c-1.32,1.18-2.63,2.39-4,3.64q-5,4.78-9.31,9.4c-.52.57-1,1.13-1.54,1.7a133.79,133.79,0,0,1-14,12.16,115.53,115.53,0,0,1-13.45,8.73A46.64,46.64,0,0,1,311.78,541c-2.86.71-4.67.64-5.43-.25a2.45,2.45,0,0,1-.34-2.3,18.73,18.73,0,0,1,1.32-3.88,41,41,0,0,1,2.64-4.87c1.1-1.75,2.36-3.57,3.79-5.44q2.81-3.62,6.84-8.57t8.74-10.46q4.7-5.52,9.73-11.38c3.34-3.9,6.51-7.61,9.47-11.13q5.44-.33,10.39-.57t9.06-.33a68,68,0,0,1,7,.16,12.61,12.61,0,0,1,3.88.74c1.65.88,2.77.86,3.37-.08a5.76,5.76,0,0,0,.67-3.79,14.42,14.42,0,0,0-1.41-4.78,5.49,5.49,0,0,0-3.12-3.05,10.38,10.38,0,0,0-3.39-.16c-1.48.11-3.21.29-5.19.57s-4.12.6-6.43,1-4.67.74-7.09,1.07q2.31-2.79,4-4.94c1.16-1.43,2.12-2.7,2.89-3.79.55-.77.43-2-.33-3.71a18.67,18.67,0,0,0-3.14-4.79,14.11,14.11,0,0,0-4.12-3.3c-1.42-.71-2.47-.52-3.13.59a116.82,116.82,0,0,1-7.25,10.38c-3,3.85-6.1,7.85-9.4,12a91.08,91.08,0,0,1-9.81-.17c-2.69-.22-4.48-.6-5.36-1.16-1.43-.87-2.52-1-3.29-.24a4.46,4.46,0,0,0-1.32,3.05,9.7,9.7,0,0,0,.66,4.2,5,5,0,0,0,2.8,3.05q1.49.82,8.9.33-7.1,8.4-12.94,15.58a98.45,98.45,0,0,0-8,10.8c-.68,1.12-1.31,2.27-1.94,3.42l-.21.21c-1.87,1.86-4.11,4-6.76,6.42s-5.41,4.84-8.32,7.26-5.8,4.75-8.65,7-5.5,4.15-7.92,5.69a30.81,30.81,0,0,1-6.26,3.21c-1.76.61-2.92.47-3.47-.41a5.89,5.89,0,0,1-.65-5.19,29.76,29.76,0,0,1,3.05-7.17,74.63,74.63,0,0,1,5.52-8.33c2.2-2.9,4.51-5.82,6.92-8.73s4.78-5.72,7.09-8.41,4.29-5.08,5.94-7.17a4,4,0,0,0,.25-3.63,13.27,13.27,0,0,0-2.31-4,9.44,9.44,0,0,0-3.47-2.72,2.56,2.56,0,0,0-3.05.33q-3.3,3.47-6.75,7.33t-6.76,7.84c-2.21,2.63-4.26,5.33-6.18,8.07-.64.92-1.24,1.82-1.81,2.72q-1.83,2-6.77,7t-11.7,11.54l-14.1,13.6q-7.41,7.17-14,13.44c2.2-3.52,4.39-7.09,6.6-10.72s4.5-7.25,6.92-10.87c1-1.65,2.33-3.77,4-6.35s3.46-5.23,5.27-7.91,3.63-5.22,5.44-7.59a58,58,0,0,1,4.54-5.36c2.2-2,2.88-4,2.06-5.93a35.84,35.84,0,0,0-5.53-8.08,47.75,47.75,0,0,0-10-9.23q-5.36-3.63-9.65-3.3a18.65,18.65,0,0,0-6.91,2.8,68.14,68.14,0,0,0-8.83,6.43q-4.69,4-9.56,8.9t-9.07,10c-.48.58-.95,1.16-1.41,1.75-1.84,1.83-4,3.91-6.58,6.24s-5.41,4.84-8.33,7.26-5.79,4.75-8.65,7a96.34,96.34,0,0,1-7.91,5.69,30.81,30.81,0,0,1-6.26,3.21c-1.76.61-2.92.47-3.47-.41a5.89,5.89,0,0,1-.66-5.19,30.59,30.59,0,0,1,3.05-7.17,74.8,74.8,0,0,1,5.53-8.33c2.19-2.9,4.5-5.82,6.92-8.73s4.78-5.72,7.09-8.41,4.28-5.08,5.93-7.17a4,4,0,0,0,.25-3.63,13.27,13.27,0,0,0-2.31-4,9.41,9.41,0,0,0-3.46-2.72,2.55,2.55,0,0,0-3,.33q-3.3,3.47-6.76,7.33t-6.76,7.84c-2.2,2.63-4.26,5.33-6.18,8.07a66.41,66.41,0,0,0-4.87,8.08,30.17,30.17,0,0,0-2.22,6.84,84.43,84.43,0,0,0-1.4,9.07,72,72,0,0,0-.33,9.73,47.13,47.13,0,0,0,1,8.57,14.89,14.89,0,0,0,2.47,5.85,3.67,3.67,0,0,0,4.12,1.49,19.19,19.19,0,0,0,6.76-3.71,110.41,110.41,0,0,0,8.49-7.34q4.53-4.28,9.32-9.48,4.22-4.59,8.19-9.05a27.22,27.22,0,0,0-.77,7.9,41.51,41.51,0,0,0,1.31,9.23A22.06,22.06,0,0,0,183,557a6.51,6.51,0,0,0,5.36,3c1.65,0,3.79-1,6.43-3.13a110,110,0,0,0,8.57-7.67q4.62-4.53,9.56-9.73t9.4-9.31c-.56.77-1.79,2.56-3.71,5.36s-4.2,6.12-6.84,10-5.44,8-8.41,12.45-5.71,8.68-8.24,12.7-4.7,7.57-6.51,10.71a34.21,34.21,0,0,0-3.22,6.51,6.13,6.13,0,0,0,.91,4.61,13.75,13.75,0,0,0,3.46,3.88,9.44,9.44,0,0,0,4,1.9c1.26.21,2.06-.17,2.39-1.16a55.6,55.6,0,0,1,2.72-6.59q2.06-4.46,5.35-10.55,4.13-4.29,9.9-10.39t12.28-12.78l13.19-13.51,12.28-12.61,5.16-5.33c-.16.62-.32,1.26-.47,1.94a87,87,0,0,0-1.4,9.07,73.65,73.65,0,0,0-.33,9.73,47.13,47.13,0,0,0,1,8.57,14.89,14.89,0,0,0,2.48,5.85,3.66,3.66,0,0,0,4.11,1.49,19,19,0,0,0,6.76-3.71q4-3,8.5-7.34t9.31-9.48q4.77-5.19,9.23-10.22,2.22-2.5,4.24-4.83c-.18.48-.36,1-.53,1.46A87.19,87.19,0,0,0,295.71,544,30.36,30.36,0,0,0,296,556.4q1.4,4.94,5.69,4.94,4.93,0,18.79-11.38a236.35,236.35,0,0,0,19.29-18.17,43.13,43.13,0,0,0-.42,7,56,56,0,0,0,1.24,11,34.21,34.21,0,0,0,3.22,9.15q2.06,3.79,5.19,3.8a12.08,12.08,0,0,0,7.25-2.56,43.52,43.52,0,0,0,7.09-6.76q3.63-4.2,7.66-9.48a108.68,108.68,0,0,1,9.32-10.55,45.55,45.55,0,0,0-1.48,9.73,30.45,30.45,0,0,0,.66,8.08,13.71,13.71,0,0,0,2.47,5.52A4.92,4.92,0,0,0,386,558.7q2.31,0,5.61-2.39a56.74,56.74,0,0,0,7.09-6.26q3.79-3.87,7.91-8.74t8-9.73l1.94-2.45c-.43,2.27-.78,4.69-1,7.23a73.65,73.65,0,0,0-.33,9.73,48,48,0,0,0,1,8.57,14.89,14.89,0,0,0,2.48,5.85,3.66,3.66,0,0,0,4.12,1.49,19.08,19.08,0,0,0,6.75-3.71A110.42,110.42,0,0,0,438,551q4.53-4.28,9.31-9.48t9.23-10.22c1.53-1.72,3-3.37,4.35-5-.19.5-.38,1-.56,1.5a76.64,76.64,0,0,0-4.12,16.73c-.55,5-.3,9,.75,12.12s2.88,4.7,5.51,4.7A15.44,15.44,0,0,0,471,558.7a63.22,63.22,0,0,0,10.63-8.65q6-5.85,13.77-14.6l2.36-2.65a22,22,0,0,0-1.05,4.3,25.25,25.25,0,0,0,.83,9.4,36.92,36.92,0,0,0,3.62,8.74,21.54,21.54,0,0,0,5.28,6.26,7.87,7.87,0,0,0,5.77,2q4.46-.66,10.22-6.18a93.52,93.52,0,0,0,11.46-13.52,178.76,178.76,0,0,0,10.79-17.23,153.19,153.19,0,0,0,8.41-17.47c2.42-.11,5.11-.36,8.09-.74s6-.91,9.14-1.57,6.18-1.45,9.15-2.39a48,48,0,0,0,7.92-3.21c.45-.22.86-.44,1.26-.65.45,0,.91-.06,1.37-.1,1.76-.16,3.38-.38,4.87-.66s2.38-.24,2.72.09.4.6.25,1.15a12.55,12.55,0,0,1-2.23,3.13c-.67.77-1.82,1.93-3.47,3.47s-3.4,3.24-5.27,5.11-3.65,3.79-5.36,5.77a26.38,26.38,0,0,0-3.71,5.27A20.15,20.15,0,0,0,576,530.1a35.49,35.49,0,0,0-.16,7.74,55.42,55.42,0,0,0,1.23,8,35.57,35.57,0,0,0,2.31,7,16.83,16.83,0,0,0,3.3,4.95,5.05,5.05,0,0,0,4,1.72q2.47-.15,6.19-2.72a70,70,0,0,0,8-6.59q4.27-4,8.9-9t8.9-9.81c2.85-3.25,5.52-6.32,8-9.24s4.59-5.3,6.35-7.16a4.31,4.31,0,0,0,1.32-2.31C634.4,512.16,634.09,511.85,633.49,511.8ZM215.34,527.54a103.43,103.43,0,0,1-10.05,8.9,63.16,63.16,0,0,1-9.4,6.19,22,22,0,0,1-7.25,2.56q-3,.33-3.63-2.15c-.44-1.42.5-4,2.81-7.66a89.25,89.25,0,0,1,9.31-12,124.29,124.29,0,0,1,13.44-12.77,70.11,70.11,0,0,1,15-9.73,21.7,21.7,0,0,1,7.42-2.07,10.69,10.69,0,0,1,6.59,1.74l-9.15,10.88Q224.74,518.16,215.34,527.54Zm159.25,0q-5.28,4.62-10,8.16a65.8,65.8,0,0,1-8.58,5.53,15.74,15.74,0,0,1-6.34,2.06,2.93,2.93,0,0,1-3.22-2.4c-.33-1.09.25-2.91,1.73-5.44a54.63,54.63,0,0,1,6.27-8.32,103,103,0,0,1,9.56-9.31A117.77,117.77,0,0,1,375.5,509a66.63,66.63,0,0,1,12.11-6.52A31,31,0,0,1,399.16,500q-3.3,4.78-9.48,12.28A129.82,129.82,0,0,1,374.59,527.54Zm164.11-9.72a110.35,110.35,0,0,1-6.92,10.06,103.22,103.22,0,0,1-7.5,8.65,47.43,47.43,0,0,1-6.93,6,48.5,48.5,0,0,1-4.61,2.65,13.74,13.74,0,0,1-4.12,1.4,3.11,3.11,0,0,1-2.73-.66c-.6-.61-.74-1.79-.41-3.55a36.73,36.73,0,0,1,4.54-10,85.9,85.9,0,0,1,8.41-11.54,78.13,78.13,0,0,1,10.46-10.22,34.75,34.75,0,0,1,10.56-6.19,7.55,7.55,0,0,0,.88.92,3.3,3.3,0,0,1,2.51,3.33h.46A60.41,60.41,0,0,1,538.7,517.82Z"/></g></g></svg>