<svg xmlns="http://www.w3.org/2000/svg" xmlns:xlink="http://www.w3.org/1999/xlink" viewBox="0 0 665.74 606.56"><defs><style>.cls-1{isolation:isolate;}.cls-13,.cls-14,.cls-19,.cls-2{fill:none;}.cls-3{fill:url(#linear-gradient);}.cls-4{fill:url(#linear-gradient-2);}.cls-5{fill:url(#linear-gradient-3);}.cls-6{fill:url(#linear-gradient-4);}.cls-7{fill:url(#linear-gradient-5);}.cls-15,.cls-8{fill:#600a0d;}.cls-10,.cls-11,.cls-12,.cls-8,.cls-9{fill-rule:evenodd;}.cls-12,.cls-16,.cls-9{fill:#742d80;}.cls-10{fill:#fff;opacity:0.3;}.cls-11,.cls-17,.cls-18,.cls-20{fill:#e3204a;}.cls-12{mix-blend-mode:multiply;}.cls-13{stroke:#fff;}.cls-13,.cls-14,.cls-16,.cls-17,.cls-18,.cls-19{stroke-miterlimit:10;}.cls-13,.cls-14{stroke-width:2.19px;}.cls-14,.cls-16{stroke:#742d80;}.cls-16{stroke-width:5px;}.cls-17,.cls-18,.cls-19{stroke:#e3204a;}.cls-17{stroke-width:17px;}.cls-18,.cls-19{stroke-width:10px;}.cls-19{stroke-linecap:round;}</style><linearGradient id="linear-gradient" x1="-7502.6" y1="-2981.06" x2="-7393.65" y2="-2872.11" gradientTransform="matrix(-0.71, -0.71, -0.71, 0.71, -7183.97, -2964.13)" gradientUnits="userSpaceOnUse"><stop offset="0" stop-color="#cee864"/><stop offset="0.09" stop-color="#b5e25b"/><stop offset="0.28" stop-color="#88d84a"/><stop offset="0.42" stop-color="#6bd140"/><stop offset="0.5" stop-color="#61cf3c"/><stop offset="0.59" stop-color="#40c443"/><stop offset="0.69" stop-color="#25bb49"/><stop offset="0.79" stop-color="#11b54d"/><stop offset="0.89" stop-color="#06b14f"/><stop offset="1" stop-color="#02b050"/></linearGradient><linearGradient id="linear-gradient-2" x1="-7430.67" y1="-2936.92" x2="-7321.72" y2="-2827.97" xlink:href="#linear-gradient"/><linearGradient id="linear-gradient-3" x1="-7414.14" y1="-2920.4" x2="-7323.9" y2="-2830.16" xlink:href="#linear-gradient"/><linearGradient id="linear-gradient-4" x1="-7431.64" y1="-2938.92" x2="-7322.69" y2="-2829.97" xlink:href="#linear-gradient"/><linearGradient id="linear-gradient-5" x1="-7415.11" y1="-2922.39" x2="-7324.87" y2="-2832.15" xlink:href="#linear-gradient"/></defs><g class="cls-1"><g id="Layer_1" data-name="Layer 1"><path class="cls-2" d="M91.24,212.8l.92.32Z"/><path class="cls-3" d="M91.67,233.12l0,0,0,0Z"/><path class="cls-4" d="M92.58,213.75c-.59-.22-1.17-.43-1.76-.63C91.41,213.32,92,213.53,92.58,213.75Z"/><path class="cls-5" d="M92.58,213.75c-.59-.22-1.17-.43-1.76-.63C91.41,213.32,92,213.53,92.58,213.75Z"/><path class="cls-6" d="M91.4,212.61l.6.19Z"/><path class="cls-7" d="M91.4,212.61l.6.19Z"/><path class="cls-8" d="M211.14,193.32c3.42-.85,8.09-.9,13.73,1.71,37,17.1-32.64,68.94-64.41,78.23,43.06-10.73,105.94-51.33,68.65-84.36-6.7-5.94-13.37-5.32-18.06-2.12a17.7,17.7,0,0,0-5.42,3.55,12.77,12.77,0,0,0-3.28,5.07,9.31,9.31,0,0,0-.13,5.62c0,.08.05.16.07.24.87,2.63,3,4.92,6.57,6.3,13.82,5.36,16.53-5.92,16.54-5.95a2.92,2.92,0,1,0-5.68-1.36s-1.16,4.83-8.76,1.88a4.85,4.85,0,0,1-3.14-2.71s0-.08,0-.12a3.57,3.57,0,0,1,.11-2.08,7,7,0,0,1,1.8-2.72,10.06,10.06,0,0,1,1.45-1.18"/><path class="cls-8" d="M238.31,207a2,2,0,0,1,1.9,2.17c-1.7,21.31,46.43,6.54,62-5.28-20.32,16.73-61.27,32.41-66,5.43a2,2,0,0,1,2-2.32Z"/><path class="cls-9" d="M220.4,260.71s13.3,21.56,7.07,43.78-12.29,39.7-11.82,56.91c.68,25,.9,33.78,9.62,55.77a171,171,0,0,0,33.81-36,187.94,187.94,0,0,0,8.8-16.83c11.8-26.05,13.6-33.14-1.83-54.05a65.42,65.42,0,0,1-6.91-11.16s11.63-24.17,14.23-39.31,1.34-17.4,1.34-17.4-26,27.74-54.31,18.26"/><path class="cls-10" d="M220.4,260.71s13.3,21.56,7.07,43.78-12.29,39.7-11.82,56.91c.68,25,.9,33.78,9.62,55.77,3.11-2.42,6.61-5.38,10.37-8.9-13.3-43.67-3.28-87.48.47-111.56,2.81-18.1-4.87-29-11.39-34.83a37.51,37.51,0,0,1-4.32-1.17"/><path class="cls-10" d="M261.49,377c2.31-4.18,4.48-8.41,6.39-12.61,11.8-26.05,13.6-33.14-1.83-54.05a65.42,65.42,0,0,1-6.91-11.16s11.63-24.17,14.23-39.31,1.34-17.4,1.34-17.4a78.33,78.33,0,0,1-19.19,14.13,53.68,53.68,0,0,1-.12,20.48c-3.92,18.36-9.42,27.46-9.42,27.46s19.76,28.16,15.51,72.46"/><path class="cls-11" d="M248.1,332.44s-2.34,51.5-121.3,71.32l-6.19,1.05,0-.15c41.27-10.38,112.75-34.17,127.47-72.22"/><path class="cls-12" d="M268.28,269.16a12,12,0,0,1,3.21,1.12c-1.95,7.23-6.37,16.76-9.07,22.24a12.06,12.06,0,0,1,5.86-23.36"/><path class="cls-9" d="M218.52,382a12.06,12.06,0,1,1-14.15,9.5,12,12,0,0,1,14.15-9.5"/><path class="cls-8" d="M268.16,237.05s-.67,3.41,1.44,4.45a42,42,0,0,0,4.13,1.73c-2,20.48-7.39,41.93-15.53,56.18,4.65,16.91,24.48,18.89,11.8,56-11.65,34.11-46.46,66.75-46.46,66.75S271.61,377,277.4,347.62c5.91-30-10.71-33.63-17.23-49.93,9.23-12.91,20.64-45.42,16.2-56.1,0,0-5.31-.43-6.07-4.43s-2.74-4.09-5.46.31c-8.86,14.36-29.71,26.07-46.7,20.12,5.55,12.78,11,31.28,8.47,43.63a37.49,37.49,0,0,1-2.42,7.45c-1.56,3.56-3.48,6.95-5.12,10.48A63.37,63.37,0,0,0,214.44,333c-3.69,17.58-1,39.38,2.06,56.84.23,1.35.46,2.7.7,4.05-.26-7-.36-14-.23-21,.2-11.4.9-24.55,3.91-35.58,2.23-8.18,4.86-16,7.58-24.06,1.61-4.74,3.36-9.83,3.81-14.84a32.53,32.53,0,0,0-.75-10c-.59-2.68-1.3-5.34-2.12-8-1.69-5.42-4.77-15.28-9.66-21.41,19.38,5.32,38.76-5,48.42-22"/><path class="cls-11" d="M203.12,381.58a7.28,7.28,0,1,1-8.54,5.73,7.26,7.26,0,0,1,8.54-5.73"/><path class="cls-11" d="M234.32,367.72a6,6,0,1,1-7.08,4.75,6,6,0,0,1,7.08-4.75"/><path class="cls-12" d="M223.07,411.42c.67,1.82,1.4,3.73,2.2,5.75a171,171,0,0,0,33.81-36,187.94,187.94,0,0,0,8.8-16.83c10.46-23.1,13.06-31.3,2.75-47.44-4.95,20.92-17.23,55.77-47.56,94.49"/><path class="cls-13" d="M111.83,213.44a84.16,84.16,0,0,1,31,20.19"/><path class="cls-14" d="M111.83,213.44A74.19,74.19,0,0,1,129,222.21"/><path class="cls-14" d="M114.78,216.15a70.69,70.69,0,0,1,6.56,2.86"/><path class="cls-14" d="M117.62,219c2.6,1,3.87,1.59,6.37,2.81"/><path class="cls-14" d="M120.33,222.13c2.53,1,3.77,1.55,6.2,2.74"/><path class="cls-14" d="M122.91,225.4a72.36,72.36,0,0,1,10.76,5.14"/><path class="cls-14" d="M125.35,228.86c2.39.94,3.57,1.45,5.87,2.54"/><path class="cls-14" d="M127.63,232.51c2.34.89,3.49,1.37,5.72,2.41"/><path class="cls-14" d="M129.75,236.34c2.29.83,3.41,1.28,5.59,2.25"/><path class="cls-14" d="M131.71,240.35a70.65,70.65,0,0,1,13.77,6.1"/><path class="cls-14" d="M131.71,240.35a70.65,70.65,0,0,1,13.77,6.1"/><path class="cls-14" d="M133.39,244.3c2.19.7,3.27,1.08,5.36,1.89"/><path class="cls-14" d="M134.84,248.13c2.17.65,3.23,1,5.29,1.74"/><path class="cls-14" d="M136.16,252.05c2.14.59,3.18.91,5.22,1.58"/><path class="cls-14" d="M137.34,256.05a90.25,90.25,0,0,1,9.17,2.7"/><path class="cls-14" d="M138.38,260.12c2.1.47,3.12.71,5.11,1.23"/><path class="cls-14" d="M139.29,264.25c2.08.4,3.09.61,5.06,1.05"/><path class="cls-14" d="M140.05,268.43c2.06.33,3.07.5,5,.86"/><path class="cls-14" d="M140.67,272.66c5.41.66,8,1,12.52,1.84"/><path class="cls-14" d="M140.67,272.66c5.41.66,8,1,12.52,1.84"/><path class="cls-14" d="M141.14,276.91c2.05.17,3,.27,5,.45"/><path class="cls-14" d="M141.46,281.18l5,.25"/><path class="cls-14" d="M141.63,285.46l5,.05"/><path class="cls-14" d="M141.65,289.75c3.73-.08,5.51-.15,8.84-.33"/><path class="cls-14" d="M141.52,294c2.06-.12,3.06-.19,5-.36"/><path class="cls-14" d="M141.2,298.47c2.08-.21,3.09-.33,5-.59"/><path class="cls-14" d="M140.71,302.87c2.09-.29,3.11-.46,5.09-.82"/><path class="cls-14" d="M140.05,307.23a81.07,81.07,0,0,0,12.87-3.16"/><path class="cls-14" d="M140.05,307.23a81.07,81.07,0,0,0,12.87-3.16"/><path class="cls-14" d="M139.21,311.53c2.15-.45,3.19-.71,5.22-1.26"/><path class="cls-14" d="M138.21,315.77c2.18-.53,3.24-.83,5.3-1.47"/><path class="cls-14" d="M137.05,319.94c2.22-.61,3.3-.94,5.4-1.67"/><path class="cls-14" d="M135.74,324a66.23,66.23,0,0,0,9.76-3.6"/><path class="cls-14" d="M134.27,328c2.31-.74,3.43-1.14,5.61-2"/><path class="cls-14" d="M132.66,331.92c2.35-.8,3.5-1.24,5.73-2.19"/><path class="cls-14" d="M130.91,335.72c2.4-.85,3.57-1.32,5.85-2.34"/><path class="cls-14" d="M129,339.4a63.14,63.14,0,0,0,15-7.46"/><path class="cls-14" d="M129,339.4a63.14,63.14,0,0,0,15-7.46"/><path class="cls-14" d="M127,343a62.6,62.6,0,0,0,6.11-2.6"/><path class="cls-14" d="M124.86,346.39a63.11,63.11,0,0,0,6.24-2.7"/><path class="cls-14" d="M122.59,349.68a63.47,63.47,0,0,0,6.37-2.77"/><path class="cls-14" d="M120.21,352.83a64,64,0,0,0,11.58-5.57"/><path class="cls-14" d="M117.72,355.82a62.11,62.11,0,0,0,6.64-2.87"/><path class="cls-14" d="M115.11,358.65a63.94,63.94,0,0,0,6.8-2.89"/><path class="cls-14" d="M112.41,361.31a62.12,62.12,0,0,0,7-2.9"/><path class="cls-13" d="M109.61,363.79a80.72,80.72,0,0,0,32.18-21.18"/><path class="cls-14" d="M109.61,363.79a64.34,64.34,0,0,0,18-9"/><path class="cls-15" d="M92.26,240.58v.62c0,1.72-.65,3.11-1.46,3.11s-1.45-1.39-1.45-3.11v-8.6a4.28,4.28,0,0,1,.82-2.81,1,1,0,0,1,1.27,0,2.35,2.35,0,0,1,.5.86,2.2,2.2,0,0,0,.8,1c.33.19.59,0,.58-.38,0-.57,0-1.14,0-1.7a5.15,5.15,0,0,0-.46-2.36c-1-1.63-4.08-1.71-4.47,1.52a37.62,37.62,0,0,0-.12,3.84c0,2.41-.16,4.8-.22,7.21C87.89,244,92.38,363,93.07,363s.79-113.31.72-115.9q-.08-3-.18-6.09a.5.5,0,0,0-.23-.38,5.75,5.75,0,0,1-.51-.3C92.53,240.14,92.26,240.24,92.26,240.58Z"/><path class="cls-16" d="M107.92,211.44l-.61-.2c-.79-.26-1.59-.51-2.39-.75a75.7,75.7,0,0,1,9.11,7.45c8.9,8.48,15.68,19.62,20.14,32.83,8.52,25.16,8.45,55.4-2.11,79.53-6.44,14.73-15.8,27.31-27,35.52,1.15-.33,2.28-.69,3.41-1.07,18.66-14.92,31.63-41.82,33.08-70.65a119.36,119.36,0,0,0-8.94-51.8,78.69,78.69,0,0,0-22-29.92h0l-1.76-.63Z"/><path class="cls-17" d="M102.73,236.42a15.33,15.33,0,0,0-9,.72.49.49,0,0,1-.71-.47c0-.52,0-1-.07-1.48a1,1,0,0,1,.67-.94c.75-.22,1.52-.41,2.3-.56,11.74-2.21,19.23,9.18,21,19.26.32,1.88-1.65.43-1.83-.64C113.8,245.13,110.21,238.39,102.73,236.42Z"/><path class="cls-18" d="M115.75,363.07c27.38-12,47.12-39.66,49.11-69.53a86.43,86.43,0,0,0-10.81-47.47c-8.36-14.94-21.75-26.11-37.24-33.2a79.86,79.86,0,0,0-48.69-6.25A74.36,74.36,0,0,0,46,215a86.69,86.69,0,0,0-20,15.18,98.49,98.49,0,0,0-7.53,9.36A49.51,49.51,0,0,0,12,250.32c-1.3,3.33-2,7.72,1.49,10,3.16,2.07,7.6,1.61,11.14,1.14,8.17-1.09,16.17-3.87,23.87-6.71,8.19-3,16.24-6.41,24.18-10q5.79-2.61,11.48-5.39a10.66,10.66,0,0,1,0-3,382.49,382.49,0,0,1-40,17.28,106.21,106.21,0,0,1-19.32,5.34c-2.94.45-6.55,1-9.36-.25-3.1-1.35-2.32-4.84-1.35-7.39,2.78-7.29,8.4-13.69,13.42-19.55l0,0,.07-.07,0,0c9.19-9,20.1-16.49,32.34-20.66a72.86,72.86,0,0,1,36.85-2.53,80.16,80.16,0,0,1,10.48,2.7l.61.2.91.31,1.76.63a90.13,90.13,0,0,1,21.08,11.36A73.72,73.72,0,0,1,156,253.83c10.28,23.06,10.2,50.77-2.55,72.89-11,19-29,34.21-50.5,39.66Z"/><path class="cls-19" d="M103.58,366.22a242.34,242.34,0,0,0-27.93,10.24c-8.83,4-18,9-25,15.83C47.06,395.76,41.4,406.1,40.15,411"/><path class="cls-9" d="M655.6,297.68c-7.14,52.16-19.3,53.54-63.85,61.9,0,0,51.36-24.1,63.85-61.9"/><path class="cls-20" d="M637.38,343.41c16.16-13.1,15.13-39.66,18.45-44.69,0,.1-2.45,35.2-16.74,46.79s-47.2,15.29-47.3,15.3c10.91-5.23,32.32-6.64,45.59-17.4"/><path class="cls-19" d="M350.16,345.62c-1.44,4-3.44,7.06-4.93,11.23-2.16,6-5.76-5.74-20.06.21"/><path d="M389.71,300.42q2.57-4.69,2.48-6.92a8.53,8.53,0,0,0-1.51-3.94,15.84,15.84,0,0,0-3.72-3.81,27.14,27.14,0,0,0-5.85-3.28,37.54,37.54,0,0,0-7.71-2.26,22.25,22.25,0,0,0-6.29,0c-2.78.3-5.88.78-9.31,1.46s-7,1.54-10.72,2.57-7.21,2.15-10.46,3.33a58.63,58.63,0,0,0-8.46,3.76,13.94,13.94,0,0,0-4.83,3.86,2.78,2.78,0,0,0-.18,2.26,11.72,11.72,0,0,0,1.11,2.83,7.34,7.34,0,0,0,1.73,2.18,1.23,1.23,0,0,0,1.77.08,21.28,21.28,0,0,1,4-2.79c1.74-1,3.72-2,5.94-3s4.64-2.05,7.27-3.06,5.3-1.95,8-2.83q-2.65,3.09-6.07,7.13t-6.92,8.2q-3.5,4.17-6.64,8.11t-5.19,6.95q-3.45-.08-6.2.09a10.26,10.26,0,0,0-3.72.71,8,8,0,0,0-2.57,2.39,20.94,20.94,0,0,0-2.17,3.73,17.82,17.82,0,0,0-1.33,4.12,6.4,6.4,0,0,0,.13,3.5,7.38,7.38,0,0,0,2.13,2.83,21.5,21.5,0,0,0,4.6,3.24,33.52,33.52,0,0,0,6.7,2.66,30.49,30.49,0,0,0,8.46,1.11,28.51,28.51,0,0,0,12.54-3.24,74.54,74.54,0,0,0,13.12-8.33,119.65,119.65,0,0,0,12.4-11.21,143.65,143.65,0,0,0,10.37-11.92A82.68,82.68,0,0,0,389.71,300.42Zm-15.95,7.44q-3.47,4.69-7.58,9.44t-8.64,9a78.4,78.4,0,0,1-9.09,7.49,43.23,43.23,0,0,1-8.95,4.92,16.66,16.66,0,0,1-8.11,1.28,9.29,9.29,0,0,1-3.67-1.55,29.4,29.4,0,0,1-4.13-3.14,25,25,0,0,1-3.23-3.51q-1.29-1.72-1-2.61c.12-.41.72-.8,1.82-1.15a30.65,30.65,0,0,1,4.21-1,11.63,11.63,0,0,0,.44,3.19,14.25,14.25,0,0,0,1.11,2.84,5.24,5.24,0,0,0,1.37,1.77.84.84,0,0,0,1.24,0,2.85,2.85,0,0,0,.62-1c.18-.42.45-1,.8-1.64s.83-1.55,1.42-2.62,1.39-2.36,2.39-3.9q3.38-.43,6.25-.75c1.92-.21,3.47-.4,4.65-.58,1.66-.29,2.6-.69,2.84-1.19s-.44-.81-2-.93l-8.86-.62,4.52-6.21q3.9-5,7.35-9.43t6.16-7.85q2.7-3.45,4.52-6a23.2,23.2,0,0,0,2.44-4.08q3.81-1,7.31-1.55a47.8,47.8,0,0,1,6.29-.67,16.83,16.83,0,0,1,4.66.4,4.08,4.08,0,0,1,2.57,1.64c.41.83.26,2.23-.45,4.21a43.39,43.39,0,0,1-3.41,7A98,98,0,0,1,373.76,307.86Z"/><path d="M404.73,298.16a3.93,3.93,0,0,0-2.7-.4,3.4,3.4,0,0,0-2,1.19A5.75,5.75,0,0,0,399,301a5.43,5.43,0,0,0-.13,2.3,3.52,3.52,0,0,0,.79,1.86,3.26,3.26,0,0,0,1.78,1,8,8,0,0,0,2.35.18,6.73,6.73,0,0,0,2.26-.58,3,3,0,0,0,1.5-1.37,3.9,3.9,0,0,0,.14-2.13,6.11,6.11,0,0,0-1-2.35A5.53,5.53,0,0,0,404.73,298.16Z"/><path d="M462,305.2a3.26,3.26,0,0,0,1.78,1,8,8,0,0,0,2.35.18,6.73,6.73,0,0,0,2.26-.58,3,3,0,0,0,1.5-1.37,3.9,3.9,0,0,0,.14-2.13,6.11,6.11,0,0,0-1-2.35,5.53,5.53,0,0,0-1.95-1.77,3.93,3.93,0,0,0-2.7-.4,3.4,3.4,0,0,0-2,1.19,5.75,5.75,0,0,0-1.06,2.09,5.43,5.43,0,0,0-.13,2.3A3.52,3.52,0,0,0,462,305.2Z"/><path d="M550,306.18a8,8,0,0,0,2.35.18,6.73,6.73,0,0,0,2.26-.58,3,3,0,0,0,1.5-1.37,3.9,3.9,0,0,0,.14-2.13,6.11,6.11,0,0,0-1-2.35,5.53,5.53,0,0,0-1.95-1.77,3.93,3.93,0,0,0-2.7-.4,3.4,3.4,0,0,0-2,1.19,5.75,5.75,0,0,0-1.06,2.09,5.43,5.43,0,0,0-.13,2.3,3.6,3.6,0,0,0,.79,1.86A3.26,3.26,0,0,0,550,306.18Z"/><path d="M645.61,320.05a2.36,2.36,0,0,0-1.29.4,6,6,0,0,0-1.59,1.33,63.81,63.81,0,0,1-6.43,6.07,68.51,68.51,0,0,1-6.91,5.09,28.45,28.45,0,0,1-5.94,3c-1.74.59-2.91.5-3.5-.27-.77-1-.67-2.29.31-3.85a33,33,0,0,1,4-5.06q2.58-2.7,5.59-5.63a56.15,56.15,0,0,0,5-5.49,1.67,1.67,0,0,0,.22-1.64,7.47,7.47,0,0,0-1-2,6.09,6.09,0,0,0-1.6-1.6,2.09,2.09,0,0,0-1.64-.44c-1.71.29-3,.55-3.9.75a10.16,10.16,0,0,1-2.3.31,7.3,7.3,0,0,0,.53-3.72,3.63,3.63,0,0,0-.4-1.42,10.3,10.3,0,0,0-1-1.73,4.69,4.69,0,0,0-1.46-1.32,2.25,2.25,0,0,0-1.91-.14,3.67,3.67,0,0,0-1.86,1.42,9.37,9.37,0,0,0-1.41,2.66,8.54,8.54,0,0,0-.49,3.14,5.57,5.57,0,0,0,.58,2.42,45.58,45.58,0,0,1-4.92.47,63.8,63.8,0,0,1-8.2-.18,13.09,13.09,0,0,0,.26-3.19,6.87,6.87,0,0,0-1.5-4.21,3.46,3.46,0,0,0-2.75-1.2,5.87,5.87,0,0,0-3.11,1.28,9.79,9.79,0,0,0-2.65,3.15,27.42,27.42,0,0,0-7,4.26,57.53,57.53,0,0,0-7.09,6.73c-.74.83-1.45,1.67-2.11,2.51a89.79,89.79,0,0,1-7.73,6.89,69.58,69.58,0,0,1-7.22,5.05,27.39,27.39,0,0,1-5.58,2.66c-1.54.47-2.52.47-2.93,0s-.38-1.55.27-3.24a21.61,21.61,0,0,1,3.28-5.45c.29-.36.94-1.11,1.95-2.26l3.68-4.21c1.44-1.65,3.07-3.49,4.87-5.49s3.65-4.08,5.54-6.21,3.75-4.24,5.58-6.33l5.1-5.85c1.56-1.81,2.92-3.4,4.07-4.79a37.91,37.91,0,0,0,2.44-3.15c.3-.41.22-1.1-.22-2.08a14.06,14.06,0,0,0-1.73-2.83,8.74,8.74,0,0,0-2.21-2.09c-.77-.47-1.33-.41-1.69.18-.87,1.37-2,3-3.46,4.94l0,.07-.3.4c-.19.25-.39.52-.6.78h0l-2,2.59h0L579,292c-.73.94-1.5,1.9-2.3,2.88q-2.88,3.54-5.94,7.18c-2,2.43-3.94,4.71-5.72,6.87s-3.34,4.09-4.69,5.8-2.31,3-2.84,3.82-1.16,1.91-1.69,2.86l-.35.33q-1.5,1.5-3.63,3.45t-4.48,3.9q-2.34,2-4.65,3.77c-1.54,1.21-2.95,2.23-4.25,3.06a16.79,16.79,0,0,1-3.37,1.72c-.94.33-1.57.26-1.86-.22a3.18,3.18,0,0,1-.36-2.79,16.94,16.94,0,0,1,1.64-3.86,42.06,42.06,0,0,1,3-4.47q1.77-2.34,3.72-4.7c1.3-1.56,2.58-3.07,3.82-4.52s2.3-2.73,3.19-3.85a2.11,2.11,0,0,0,.13-1.95,7.08,7.08,0,0,0-1.24-2.17,5,5,0,0,0-1.86-1.46,1.36,1.36,0,0,0-1.64.17c-1.19,1.24-2.4,2.56-3.64,3.94s-2.45,2.8-3.63,4.22-2.29,2.86-3.32,4.34c-.34.49-.66,1-1,1.46q-2.38,2.55-5.46,5.36a75,75,0,0,1-5.94,5,22.44,22.44,0,0,1-5,3c-1.45.55-2.35.36-2.7-.58a2.71,2.71,0,0,1,.39-2,17.79,17.79,0,0,1,1.91-2.93c.83-1.06,1.77-2.17,2.84-3.32s2.1-2.23,3.14-3.23,2-1.9,2.88-2.66l2-1.69a1.84,1.84,0,0,0,.53-2.08,7.85,7.85,0,0,0-1.28-2.66,8.23,8.23,0,0,0-2.13-2.08,1.9,1.9,0,0,0-2-.36,8,8,0,0,0-1.73-2.7,9.87,9.87,0,0,0-2.35-1.77,7.67,7.67,0,0,0-2.48-.84,6.3,6.3,0,0,0-2.13,0,11.44,11.44,0,0,0-3.46,1.73c-1.47,1-3.08,2.17-4.83,3.58-1,.78-1.9,1.6-2.87,2.46l-1,0a1.67,1.67,0,0,1,.28.25H501c-.7.64-1.41,1.29-2.12,2-1.8,1.71-3.47,3.4-5,5.05l-.83.91a71.61,71.61,0,0,1-7.54,6.54,62.16,62.16,0,0,1-7.23,4.7,24.87,24.87,0,0,1-5.58,2.34c-1.54.39-2.51.35-2.92-.13a1.33,1.33,0,0,1-.18-1.24,10,10,0,0,1,.71-2.08,19.91,19.91,0,0,1,1.42-2.62,34.61,34.61,0,0,1,2-2.92c1-1.3,2.23-2.84,3.68-4.61s3-3.65,4.7-5.63,3.42-4,5.23-6.11,3.5-4.09,5.09-6c1.95-.12,3.81-.23,5.59-.31s3.39-.15,4.87-.18a36.08,36.08,0,0,1,3.77.09,6.58,6.58,0,0,1,2.08.4c.89.47,1.49.45,1.81-.05a3.06,3.06,0,0,0,.36-2,7.9,7.9,0,0,0-.75-2.57,3,3,0,0,0-1.69-1.64,5.76,5.76,0,0,0-1.81-.08c-.8.06-1.73.16-2.8.31s-2.21.32-3.45.52-2.51.4-3.81.58l2.17-2.65c.62-.77,1.14-1.45,1.55-2,.3-.42.24-1.08-.18-2a10.15,10.15,0,0,0-1.68-2.57,7.39,7.39,0,0,0-2.22-1.77c-.76-.39-1.33-.28-1.68.31a61.82,61.82,0,0,1-3.9,5.58c-1.59,2.07-3.28,4.23-5,6.47a48.45,48.45,0,0,1-5.28-.09,7.33,7.33,0,0,1-2.88-.62c-.76-.47-1.35-.51-1.77-.13a2.43,2.43,0,0,0-.71,1.64,5.32,5.32,0,0,0,.36,2.26,2.69,2.69,0,0,0,1.5,1.64c.54.3,2.13.35,4.79.18q-3.81,4.52-7,8.37a53.64,53.64,0,0,0-4.3,5.81c-.36.6-.7,1.22-1,1.84l-.11.11q-1.5,1.5-3.63,3.45t-4.48,3.9q-2.34,2-4.65,3.77c-1.54,1.21-2.95,2.23-4.25,3.06a16.79,16.79,0,0,1-3.37,1.72c-.95.33-1.57.26-1.86-.22a3.18,3.18,0,0,1-.36-2.79,16.94,16.94,0,0,1,1.64-3.86,42.06,42.06,0,0,1,3-4.47q1.79-2.34,3.72-4.7t3.82-4.52c1.24-1.44,2.3-2.73,3.19-3.85a2.14,2.14,0,0,0,.13-1.95,7.08,7.08,0,0,0-1.24-2.17,5,5,0,0,0-1.86-1.46,1.36,1.36,0,0,0-1.64.17c-1.19,1.24-2.4,2.56-3.63,3.94s-2.46,2.8-3.64,4.22-2.29,2.86-3.32,4.34c-.34.49-.67,1-1,1.46q-1,1.06-3.64,3.77t-6.29,6.2q-3.6,3.45-7.58,7.31t-7.54,7.23q1.78-2.85,3.55-5.77c1.18-1.95,2.43-3.89,3.72-5.84.54-.89,1.26-2,2.17-3.42s1.86-2.8,2.84-4.25,1.95-2.81,2.93-4.08a30,30,0,0,1,2.43-2.88c1.19-1.06,1.55-2.13,1.11-3.19a19,19,0,0,0-3-4.34,25.34,25.34,0,0,0-5.36-5,8.42,8.42,0,0,0-5.19-1.78,10,10,0,0,0-3.72,1.51,36.93,36.93,0,0,0-4.74,3.46c-1.68,1.41-3.39,3-5.14,4.78s-3.36,3.56-4.87,5.36l-.76.94q-1.49,1.49-3.54,3.36t-4.48,3.9q-2.34,2-4.65,3.77c-1.54,1.21-2.95,2.23-4.25,3.06a16.79,16.79,0,0,1-3.37,1.72c-.95.33-1.57.26-1.86-.22a3.18,3.18,0,0,1-.36-2.79,16.94,16.94,0,0,1,1.64-3.86,42.06,42.06,0,0,1,3-4.47q1.79-2.34,3.72-4.7t3.82-4.52c1.24-1.44,2.3-2.73,3.19-3.85a2.14,2.14,0,0,0,.13-1.95,7.08,7.08,0,0,0-1.24-2.17,5,5,0,0,0-1.86-1.46,1.36,1.36,0,0,0-1.64.17c-1.19,1.24-2.4,2.56-3.63,3.94s-2.46,2.8-3.64,4.22-2.29,2.86-3.32,4.34a35.27,35.27,0,0,0-2.62,4.34,15.75,15.75,0,0,0-1.19,3.68,44.08,44.08,0,0,0-.76,4.87,39.81,39.81,0,0,0-.18,5.23,25.06,25.06,0,0,0,.54,4.61,7.92,7.92,0,0,0,1.33,3.15,2,2,0,0,0,2.21.79,10.08,10.08,0,0,0,3.63-2c1.42-1.09,2.94-2.41,4.57-3.94s3.29-3.24,5-5.1q2.26-2.47,4.4-4.87a14.58,14.58,0,0,0-.41,4.25,22.56,22.56,0,0,0,.7,5,11.84,11.84,0,0,0,1.82,4,3.51,3.51,0,0,0,2.88,1.64,6.29,6.29,0,0,0,3.46-1.68,57.94,57.94,0,0,0,4.6-4.13q2.49-2.43,5.14-5.22c1.78-1.86,3.46-3.53,5.06-5-.3.41-1,1.37-2,2.88l-3.67,5.36q-2.13,3.1-4.53,6.69c-1.59,2.4-3.07,4.67-4.43,6.83s-2.52,4.07-3.5,5.76a19,19,0,0,0-1.73,3.5,3.36,3.36,0,0,0,.49,2.48,7.59,7.59,0,0,0,1.86,2.08,5.05,5.05,0,0,0,2.13,1c.68.12,1.11-.09,1.29-.62a29.73,29.73,0,0,1,1.46-3.54q1.11-2.4,2.88-5.68c1.47-1.53,3.25-3.4,5.32-5.58s4.26-4.48,6.6-6.87L433.8,337l6.6-6.77,2.78-2.87c-.09.34-.18.68-.25,1.05a44.08,44.08,0,0,0-.76,4.87,39.81,39.81,0,0,0-.18,5.23,25.06,25.06,0,0,0,.54,4.61,7.92,7.92,0,0,0,1.33,3.15,2,2,0,0,0,2.21.79,10.08,10.08,0,0,0,3.63-2c1.42-1.09,2.94-2.41,4.57-3.94s3.29-3.24,5-5.1,3.36-3.69,5-5.49c.8-.9,1.55-1.77,2.28-2.6l-.29.78a46.92,46.92,0,0,0-2.21,8.68,16.36,16.36,0,0,0,.17,6.65c.51,1.77,1.53,2.66,3.06,2.66q2.65,0,10.11-6.12a128.86,128.86,0,0,0,10.37-9.76,22.25,22.25,0,0,0-.23,3.74,31.07,31.07,0,0,0,.67,5.89,18.27,18.27,0,0,0,1.73,4.92,3.23,3.23,0,0,0,2.79,2,6.5,6.5,0,0,0,3.9-1.37,24,24,0,0,0,3.81-3.64c1.3-1.51,2.67-3.2,4.12-5.1a57.73,57.73,0,0,1,5-5.67,24.19,24.19,0,0,0-.8,5.23,16.59,16.59,0,0,0,.35,4.35,7.52,7.52,0,0,0,1.33,3,2.65,2.65,0,0,0,2.13,1.11,5.53,5.53,0,0,0,3-1.28,31,31,0,0,0,3.82-3.37c1.35-1.39,2.77-2.95,4.25-4.7s2.91-3.49,4.29-5.23q.54-.66,1.05-1.32c-.23,1.23-.42,2.52-.56,3.89a39.81,39.81,0,0,0-.18,5.23,25.06,25.06,0,0,0,.54,4.61,8.07,8.07,0,0,0,1.33,3.15,2,2,0,0,0,2.21.79,10.19,10.19,0,0,0,3.64-2c1.41-1.09,2.94-2.41,4.56-3.94s3.29-3.24,5-5.1,3.36-3.69,5-5.49l2.34-2.67c-.1.27-.21.54-.3.81a41.13,41.13,0,0,0-2.22,9,15.61,15.61,0,0,0,.4,6.51c.56,1.69,1.55,2.53,3,2.53a8.25,8.25,0,0,0,4.61-1.42,33.74,33.74,0,0,0,5.72-4.65q3.22-3.15,7.39-7.85l1.28-1.42a11.76,11.76,0,0,0-.57,2.31,13.65,13.65,0,0,0,.45,5.05,19.75,19.75,0,0,0,1.94,4.7,11.88,11.88,0,0,0,2.84,3.37,4.23,4.23,0,0,0,3.11,1.06q2.39-.34,5.49-3.32a50.57,50.57,0,0,0,6.16-7.27,95.52,95.52,0,0,0,5.8-9.26,82.47,82.47,0,0,0,4.52-9.39c1.3-.06,2.75-.2,4.35-.4s3.23-.49,4.91-.84,3.33-.79,4.92-1.29a25.68,25.68,0,0,0,4.26-1.73c.24-.11.46-.23.68-.35l.73-.05c1-.09,1.82-.2,2.62-.35s1.28-.14,1.46,0,.22.33.14.62a6.66,6.66,0,0,1-1.2,1.69q-.54.61-1.86,1.86c-.89.83-1.83,1.74-2.84,2.75s-2,2-2.88,3.1a14.19,14.19,0,0,0-2,2.83,10.77,10.77,0,0,0-1,3.42,19.11,19.11,0,0,0-.09,4.16,29.8,29.8,0,0,0,.67,4.3,18.42,18.42,0,0,0,1.24,3.76,9.13,9.13,0,0,0,1.77,2.67,2.74,2.74,0,0,0,2.17.92,7.1,7.1,0,0,0,3.33-1.46,37.39,37.39,0,0,0,4.3-3.54c1.53-1.45,3.13-3.06,4.78-4.83s3.25-3.53,4.79-5.28,3-3.39,4.29-5,2.47-2.85,3.42-3.85a2.32,2.32,0,0,0,.71-1.24C646.1,320.24,645.93,320.08,645.61,320.05Zm-224.8,8.46a56.22,56.22,0,0,1-5.4,4.79,34.35,34.35,0,0,1-5.05,3.32,11.77,11.77,0,0,1-3.9,1.38c-1.07.12-1.72-.27-1.95-1.16s.26-2.14,1.51-4.12a49.08,49.08,0,0,1,5-6.47,68.39,68.39,0,0,1,7.23-6.87,37.53,37.53,0,0,1,8.06-5.22,11.26,11.26,0,0,1,4-1.11,5.7,5.7,0,0,1,3.54.93l-4.92,5.85Q425.88,323.46,420.81,328.51Zm85.62,0Q503.58,331,501,332.9a36.15,36.15,0,0,1-4.61,3A8.21,8.21,0,0,1,493,337a1.56,1.56,0,0,1-1.73-1.28c-.18-.59.13-1.57.93-2.93a29.67,29.67,0,0,1,3.37-4.47,57.49,57.49,0,0,1,5.14-5,65.59,65.59,0,0,1,6.2-4.74,36,36,0,0,1,6.52-3.5,16.62,16.62,0,0,1,6.2-1.33q-1.77,2.58-5.09,6.6A70.73,70.73,0,0,1,506.43,328.51Zm88.22-5.23a58,58,0,0,1-3.72,5.41,56.17,56.17,0,0,1-4,4.65,26.59,26.59,0,0,1-3.73,3.24,28.53,28.53,0,0,1-2.48,1.42,7.49,7.49,0,0,1-2.21.75,1.67,1.67,0,0,1-1.47-.36c-.32-.32-.4-1-.22-1.9a19.92,19.92,0,0,1,2.44-5.36,47.4,47.4,0,0,1,4.52-6.21,41.63,41.63,0,0,1,5.63-5.49,18.49,18.49,0,0,1,5.67-3.33,4.42,4.42,0,0,0,.47.5,1.77,1.77,0,0,1,1.35,1.79h.25A32.09,32.09,0,0,1,594.65,323.28Z"/></g></g></svg>
