<?xml version="1.0" encoding="utf-8"?>
<!-- Generator: Adobe Illustrator 25.2.1, SVG Export Plug-In . SVG Version: 6.00 Build 0)  -->
<svg version="1.1" id="Layer_1" xmlns="http://www.w3.org/2000/svg" xmlns:xlink="http://www.w3.org/1999/xlink" x="0px" y="0px"
	 viewBox="0 0 23.8 19.6" style="enable-background:new 0 0 23.8 19.6;" xml:space="preserve">
<style type="text/css">
	.st0{fill:#801417;}
</style>
<path class="st0" d="M18.3,11.8v-10c0-0.4-0.2-0.9-0.5-1.2c-0.3-0.3-0.7-0.5-1.2-0.5H2.3c-0.4,0-0.9,0.2-1.2,0.5
	C0.8,0.9,0.6,1.4,0.6,1.8v14c0,0.2,0.2,0.4,0.4,0.4c0.1,0,0.2,0,0.3-0.1l2.9-2.6h12.5C17.6,13.5,18.3,12.7,18.3,11.8z M4.1,12.7
	c-0.1,0-0.2,0-0.3,0.1l-2.4,2.1V1.8c0-0.2,0.1-0.4,0.2-0.6C1.8,1,2,0.9,2.3,0.9h14.4c0.2,0,0.4,0.1,0.6,0.2c0.2,0.2,0.2,0.4,0.2,0.6
	v10c0,0.2-0.1,0.4-0.2,0.6c-0.2,0.2-0.4,0.3-0.6,0.2L4.1,12.7z M23.2,5v14l0,0c0,0.2-0.2,0.4-0.4,0.4c-0.1,0-0.2,0-0.3-0.1l-2.9-2.6
	H9.9c-0.4,0-0.9-0.1-1.2-0.4c-0.3-0.3-0.5-0.7-0.5-1.2v-0.4c0-0.2,0.1-0.4,0.3-0.5c0.2,0,0.4,0.1,0.5,0.3c0,0,0,0.1,0,0.1v0.4
	c0,0.2,0.1,0.4,0.2,0.6C9.4,15.9,9.7,16,9.9,16h9.9c0.1,0,0.2,0,0.3,0.1l2.3,2.1V5c0-0.5-0.4-0.8-0.8-0.8l0,0h-2
	c-0.2,0-0.4-0.2-0.4-0.4c0-0.2,0.2-0.4,0.4-0.4h2C22.5,3.4,23.2,4.1,23.2,5z M11.2,4.3c0,0.2-0.2,0.4-0.4,0.4H3.7
	c-0.1,0-0.2,0-0.3-0.1C3.3,4.5,3.3,4.4,3.3,4.3c0-0.1,0-0.2,0.1-0.2C3.5,4,3.6,3.9,3.7,3.9h7.1C11,3.9,11.2,4.1,11.2,4.3L11.2,4.3z
	 M11.2,6.5c0,0.2-0.2,0.4-0.4,0.4H3.7c-0.2,0-0.4-0.2-0.4-0.4c0-0.2,0.2-0.4,0.4-0.4c0,0,0,0,0,0h7.1C11,6.1,11.2,6.3,11.2,6.5
	C11.2,6.5,11.2,6.5,11.2,6.5L11.2,6.5z M8,8.7c0,0.2-0.2,0.4-0.4,0.4H3.7c-0.2,0-0.4-0.2-0.4-0.4c0-0.2,0.2-0.4,0.4-0.4c0,0,0,0,0,0
	h3.8C7.8,8.3,8,8.5,8,8.7z M15.6,4.1C15.9,4.5,16,5,16,5.5c-0.1,0.5-0.3,0.9-0.7,1.2c-0.2,0.2-0.4,0.3-0.7,0.4
	c-0.2,0.1-0.3,0.1-0.4,0.2c-0.1,0.1-0.1,0.2-0.1,0.5c0,0.1,0,0.2,0,0.3l0,0c0,0.1,0,0.2-0.1,0.3c-0.1,0.1-0.2,0.1-0.3,0.1
	c-0.1,0-0.2,0-0.3-0.1c-0.1-0.1-0.1-0.2-0.1-0.3c0-0.1,0-0.2,0-0.2c-0.1-0.4,0-0.8,0.3-1.1c0.2-0.2,0.5-0.4,0.8-0.5
	c0.2,0,0.3-0.1,0.4-0.2c0.5-0.4,0.5-1,0.2-1.5C14.7,4.2,14.3,4,13.9,4l0,0c-0.4,0-0.7,0.2-0.9,0.5c-0.1,0.1-0.2,0.1-0.3,0.2
	c-0.1,0-0.2,0-0.3-0.1c-0.1-0.1-0.1-0.1-0.2-0.2c0-0.1,0-0.2,0.1-0.3c0.4-0.5,0.9-0.8,1.5-0.8l0,0C14.5,3.2,15.2,3.5,15.6,4.1
	L15.6,4.1z M13.7,9.2c-0.4,0-0.7,0.3-0.7,0.7s0.3,0.7,0.7,0.7c0.4,0,0.7-0.3,0.7-0.7c0,0,0,0,0,0C14.4,9.5,14.1,9.2,13.7,9.2
	C13.7,9.2,13.7,9.2,13.7,9.2z M13.6,9.9c0-0.1,0.1-0.1,0.1-0.1c0.1,0,0.1,0,0.1,0.1C13.9,10,13.6,10,13.6,9.9z"/>
</svg>
