<?xml version="1.0" encoding="utf-8"?>
<!-- Generator: Adobe Illustrator 25.2.1, SVG Export Plug-In . SVG Version: 6.00 Build 0)  -->
<svg version="1.1" id="Layer_1" xmlns="http://www.w3.org/2000/svg" xmlns:xlink="http://www.w3.org/1999/xlink" x="0px" y="0px"
	 viewBox="0 0 21.5 21.5" style="enable-background:new 0 0 21.5 21.5;" xml:space="preserve">
<style type="text/css">
	.st0{fill:#e3204a;}
</style>
<path class="st0" d="M19.6,0H6.7C5.6,0,4.8,0.9,4.8,1.9v0.5H4.3c-1.1,0-1.9,0.9-1.9,1.9v0.5H1.9C0.9,4.8,0,5.6,0,6.7v12.9
	c0,1.1,0.9,1.9,1.9,1.9h12.9c1.1,0,1.9-0.9,1.9-1.9v-0.5h0.5c1,0,1.9-0.8,1.9-1.9v-0.5h0.5c1.1,0,1.9-0.9,1.9-1.9v-13
	C21.5,0.9,20.6,0,19.6,0z M15.8,19.6c0,0.5-0.5,1-1,1H1.9c-0.5,0-1-0.4-1-1V6.7c0-0.5,0.5-1,1-0.9h0.5v11.5c0,1.1,0.9,1.9,1.9,1.9
	h11.5V19.6z M18.1,17.2c0,0.5-0.5,1-1,1H4.3c-0.5,0-0.9-0.5-0.9-1V4.3c0-0.6,0.4-1,1-1h0.5v11.5c0,1,0.8,1.9,1.8,1.9h11.5V17.2z
	 M20.5,14.9c0,0.5-0.4,1-1,1H8.1l5.8-7.7l6.6,4.8V14.9z M20.5,11.8l-6.4-4.7l0,0c0,0,0,0-0.1,0s0,0,0,0l0,0h-0.2l0,0l0,0l0,0l0,0
	c0,0,0,0-0.1,0l0,0l0,0l-6.9,8.7H6.7c-0.6,0-1-0.4-1-1V1.9c0-0.6,0.4-1,1-1h12.9c0.5,0,1,0.5,1,1L20.5,11.8z M9.1,2.4
	C8,2.4,7.2,3.2,7.2,4.3c0,1.1,0.9,1.9,1.9,1.9c1.1,0,1.9-0.9,1.9-1.9C11,3.2,10.1,2.4,9.1,2.4z M9.1,5.3c-0.6,0-1-0.4-1-1s0.4-1,1-1
	s1,0.4,1,1C10.1,4.8,9.6,5.3,9.1,5.3L9.1,5.3z"/>
</svg>
