<?xml version="1.0" encoding="utf-8"?>
<!-- Generator: Adobe Illustrator 25.2.1, SVG Export Plug-In . SVG Version: 6.00 Build 0)  -->
<svg version="1.1" id="Layer_1" xmlns="http://www.w3.org/2000/svg" xmlns:xlink="http://www.w3.org/1999/xlink" x="0px" y="0px"
	 viewBox="0 0 16.7 10.5" style="enable-background:new 0 0 16.7 10.5;" xml:space="preserve">
<style type="text/css">
	.st0{fill:#e3204a;}
</style>
<path class="st0" d="M1,0.3c-0.4,0-0.7,0.3-0.7,0.6c0,0.4,0.3,0.7,0.6,0.7c0,0,0,0,0,0h14.7c0.4,0,0.6-0.3,0.6-0.6
	c0-0.4-0.3-0.7-0.6-0.7L1,0.3z M1,4.6c-0.4,0-0.7,0.3-0.7,0.6c0,0.4,0.3,0.7,0.7,0.7h14.7c0.4,0,0.6-0.3,0.6-0.7
	c0-0.4-0.3-0.6-0.6-0.6H1z M1,8.9c-0.4,0-0.7,0.3-0.7,0.6c0,0.4,0.3,0.7,0.6,0.7c0,0,0,0,0,0h14.7c0.4,0,0.6-0.3,0.6-0.7
	c0-0.4-0.3-0.6-0.6-0.6H1z"/>
</svg>
