<?xml version="1.0" encoding="utf-8"?>
<!-- Generator: Adobe Illustrator 25.2.1, SVG Export Plug-In . SVG Version: 6.00 Build 0)  -->
<svg version="1.1" id="Layer_1" xmlns="http://www.w3.org/2000/svg" xmlns:xlink="http://www.w3.org/1999/xlink" x="0px" y="0px"
	 viewBox="0 0 15.8 23" style="enable-background:new 0 0 15.8 23;" xml:space="preserve">
<style type="text/css">
	.st0{fill:#e3204a;}
</style>
<path class="st0" d="M12,3.1V1.8h-1.1L10.2,0H5.6L5,1.8H3.9v1.3H0V23h15.8V3.1H12z M6.3,1h3.2l0.3,0.8H6L6.3,1z M4.8,2.7H11v1.6H4.8
	V2.7z M14.9,22H1V4h2.9v1.3H12V4h2.9V22z"/>
<path class="st0" d="M3,8.1L2.6,7.7L1.9,8.3l1,1.2l2.5-2.3L4.8,6.5L3,8.1z"/>
<path class="st0" d="M5.6,7.7h8.4v1H5.6V7.7z"/>
<path class="st0" d="M3,12l-0.4-0.5l-0.7,0.6l1,1.2L5.5,11l-0.6-0.7L3,12z"/>
<path class="st0" d="M5.6,11.5h8.4v1H5.6V11.5z"/>
<path class="st0" d="M3,15.8l-0.4-0.5L1.9,16l1,1.2l2.5-2.3l-0.6-0.7L3,15.8z"/>
<path class="st0" d="M5.6,15.4h8.4v1H5.6V15.4z"/>
<path class="st0" d="M3,19.6l-0.4-0.5l-0.7,0.6l1,1.2l2.5-2.3L4.8,18L3,19.6z"/>
<path class="st0" d="M5.6,19.2h8.4v1H5.6V19.2z"/>
</svg>
