<?xml version="1.0" encoding="utf-8"?>
<!-- Generator: Adobe Illustrator 25.2.1, SVG Export Plug-In . SVG Version: 6.00 Build 0)  -->
<svg version="1.1" id="Layer_1" xmlns="http://www.w3.org/2000/svg" xmlns:xlink="http://www.w3.org/1999/xlink" x="0px" y="0px"
	 viewBox="0 0 20.2 23.7" style="enable-background:new 0 0 20.2 23.7;" xml:space="preserve">
<style type="text/css">
	.st0{fill:#e3204a;}
</style>
<path class="st0" d="M12.8,1.2c0.5,0.1,0.9,0.2,1.4,0.4c2,0.8,3.2,2.7,3.1,4.9C17,9.2,14.7,11.2,12,11c-2.7-0.2-4.7-2.5-4.6-5.2
	c0.2-2.3,2-4.2,4.3-4.5h0.1L12.8,1.2z M12.3,2.6c-1.9,0-3.5,1.6-3.5,3.5c0,1.9,1.6,3.5,3.5,3.5c1.9,0,3.5-1.6,3.5-3.5
	C15.8,4.2,14.3,2.6,12.3,2.6C12.3,2.6,12.3,2.6,12.3,2.6z"/>
<path class="st0" d="M14,21.1h-3.6c0.3,1.1-0.3,2.2-1.3,2.5c-1.1,0.3-2.2-0.3-2.5-1.3c-0.1-0.4-0.1-0.8,0-1.2H6.3c-0.5,0-1,0-1.4,0
	c-0.9,0-1.6-0.7-1.6-1.5c0-0.5,0.2-1,0.6-1.3l1.7-1.2c0.1-0.1,0.2-0.2,0.1-0.3c-1-4.1-1.9-8.1-2.9-12.2c0-0.2-0.1-0.2-0.3-0.2H0.8
	C0.4,4.3,0,4,0,3.6c0,0,0,0,0,0c0-0.4,0.3-0.7,0.7-0.7c0,0,0,0,0.1,0c0.8,0,1.6,0,2.4,0c0.4,0,0.7,0.2,0.8,0.6c0,0,0,0,0,0
	c0.2,0.7,0.4,1.4,0.5,2.1c0,0.1,0.1,0.2,0.2,0.2C5.2,5.9,5.7,6,6.2,6.1c0.4,0,0.6,0.4,0.6,0.7c0,0.4-0.4,0.6-0.7,0.6
	c-0.3,0-0.6-0.1-0.8-0.1H4.9L7,16.4h11.2c0.4,0,0.4,0,0.4-0.4c0-2.1,0.1-4.2,0.1-6.4c0-0.2,0-0.4-0.3-0.4C18.1,9.2,18,8.8,18,8.5
	C18.1,8.2,18.4,8,18.7,8c0.8,0.1,1.4,0.7,1.4,1.5c0,0.8,0,1.5,0,2.3c0,1.5-0.1,2.9-0.1,4.4c0,0.9-0.6,1.6-1.5,1.6
	c-0.1,0-0.1,0-0.2,0H6.9c-0.1,0-0.2,0-0.3,0.1c-0.6,0.4-1.2,0.9-1.7,1.3c-0.1,0.1-0.3,0.1-0.2,0.3c0.1,0.2,0.2,0.1,0.4,0.1h14.4
	c0.3,0,0.6,0.1,0.7,0.4c0.1,0.3,0,0.7-0.4,0.9c-0.1,0-0.2,0-0.3,0h-1.6c0.3,0.9-0.1,1.9-0.9,2.4c-0.7,0.4-1.5,0.4-2.2-0.1
	C14.1,22.9,13.7,21.9,14,21.1z M8.5,21.1c-0.4,0-0.7,0.3-0.7,0.7s0.3,0.7,0.7,0.7s0.7-0.3,0.7-0.7C9.2,21.3,8.9,21,8.5,21.1
	C8.5,21,8.5,21,8.5,21.1L8.5,21.1z M16.6,21.7c0-0.4-0.3-0.7-0.7-0.7c-0.4,0-0.7,0.3-0.7,0.7c0,0,0,0,0,0c0,0.4,0.3,0.7,0.7,0.7
	S16.6,22.1,16.6,21.7z"/>
<path class="st0" d="M11.7,6.4L12.1,6l1.4-1.5c0.2-0.3,0.7-0.3,1-0.1c0,0,0,0,0,0c0.3,0.3,0.3,0.7,0,1c0,0,0,0,0,0l-2.3,2.4
	c-0.2,0.3-0.7,0.4-1,0.1c-0.1,0-0.1-0.1-0.1-0.1l-0.9-1.2C9.8,6.4,9.7,6,9.9,5.7s0.6-0.4,0.9-0.1C11,5.6,11,5.7,11.1,5.8L11.7,6.4
	L11.7,6.4z"/>
</svg>
