<?xml version="1.0" encoding="utf-8"?>
<!-- Generator: Adobe Illustrator 25.2.1, SVG Export Plug-In . SVG Version: 6.00 Build 0)  -->
<svg version="1.1" id="Layer_1" xmlns="http://www.w3.org/2000/svg" xmlns:xlink="http://www.w3.org/1999/xlink" x="0px" y="0px"
	 viewBox="0 0 18 21.8" style="enable-background:new 0 0 18 21.8;" xml:space="preserve">
<style type="text/css">
	.st0{fill:#e3204a;}
</style>
<path class="st0" d="M1.4,3.4H3V1.5c0-0.4,0.1-0.7,0.4-1l0,0c0.3-0.3,0.6-0.4,1-0.4h12.2c0.4,0,0.7,0.1,1,0.4l0,0
	c0.3,0.3,0.4,0.6,0.4,1v15.4c0,0.4-0.1,0.7-0.4,1l0,0c-0.3,0.3-0.6,0.4-1,0.4H15v1.9c0,0.4-0.1,0.7-0.4,1l0,0
	c-0.3,0.3-0.6,0.4-1,0.4H1.4c-0.4,0-0.7-0.1-1-0.4l0,0C0.1,21,0,20.6,0,20.2V4.8c0-0.4,0.1-0.7,0.4-1l0,0C0.7,3.5,1,3.4,1.4,3.4
	L1.4,3.4z M4,3.4h6.5c0.1,0,0.3,0.1,0.4,0.2l4,4C15,7.6,15,7.7,15,7.9v9.5h1.6c0.1,0,0.2,0,0.3-0.1c0.1-0.1,0.1-0.2,0.1-0.3V1.5
	c0-0.1,0-0.2-0.1-0.3c-0.1-0.1-0.2-0.1-0.3-0.1H4.4c-0.1,0-0.2,0-0.3,0.1C4,1.3,4,1.4,4,1.5V3.4z M14,8.4h-3.5
	c-0.3,0-0.5-0.2-0.5-0.5V4.4H1.4c-0.1,0-0.2,0-0.3,0.1l0,0C1.1,4.5,1,4.6,1,4.8v15.5c0,0.2,0.2,0.4,0.4,0.4h12.2
	c0.1,0,0.2,0,0.3-0.1c0.1-0.1,0.1-0.2,0.1-0.3L14,8.4L14,8.4z M11,5.1v2.3h2.3L11,5.1z"/>
</svg>
