<?xml version="1.0" encoding="utf-8"?>
<!-- Generator: Adobe Illustrator 25.2.1, SVG Export Plug-In . SVG Version: 6.00 Build 0)  -->
<svg version="1.1" id="Layer_1" xmlns="http://www.w3.org/2000/svg" xmlns:xlink="http://www.w3.org/1999/xlink" x="0px" y="0px"
	 viewBox="0 0 19 23.2" style="enable-background:new 0 0 19 23.2;" xml:space="preserve">
<style type="text/css">
	.st0{fill:#e3204a;}
	.st1{fill:#FFFFFF;}
</style>
<g>
	<path class="st0" d="M18.1,23.1H0.9c-0.5,0-0.9-0.4-0.9-0.9c0,0,0,0,0-0.1V1c0-0.5,0.4-0.9,0.9-0.9c0,0,0,0,0.1,0h17.2
		C18.6,0.1,19,0.5,19,1v21.2C19,22.7,18.6,23.1,18.1,23.1L18.1,23.1z M0.9,0.9C0.8,0.9,0.8,0.9,0.8,1l0,0v21.2
		c0,0.1,0.1,0.2,0.2,0.2h17.2c0.1,0,0.2-0.1,0.2-0.2V1c0-0.1-0.1-0.2-0.2-0.2H0.9z"/>
	<path class="st0" d="M16.5,4.7H6.6c-0.2,0-0.3-0.1-0.3-0.2c0-0.2,0.1-0.3,0.2-0.3c0,0,0.1,0,0.1,0h9.9c0.2,0,0.3,0.2,0.2,0.3
		C16.7,4.6,16.6,4.7,16.5,4.7z"/>
	<path class="st0" d="M2.4,3.4h1.8c0.1,0,0.1,0.1,0.1,0.1v1.8c0,0.1-0.1,0.1-0.1,0.1H2.4c-0.1,0-0.1-0.1-0.1-0.1V3.5
		C2.2,3.5,2.3,3.4,2.4,3.4z"/>
	<rect x="2.5" y="3.7" class="st1" width="1.5" height="1.4"/>
	<path class="st0" d="M16.5,9.5H6.6c-0.2,0-0.3-0.1-0.3-0.3c0-0.2,0.1-0.3,0.3-0.3c0,0,0,0,0,0h9.9c0.2,0,0.3,0.1,0.3,0.3
		C16.8,9.4,16.6,9.5,16.5,9.5C16.5,9.5,16.5,9.5,16.5,9.5z"/>
	<path class="st0" d="M2.4,8.2h1.8c0.1,0,0.1,0.1,0.1,0.1v1.8c0,0.1-0.1,0.1-0.1,0.1H2.4c-0.1,0-0.1-0.1-0.1-0.1V8.3
		C2.2,8.3,2.3,8.2,2.4,8.2z"/>
	<rect x="2.5" y="8.5" class="st1" width="1.5" height="1.4"/>
	<path class="st0" d="M16.5,14.3H6.6c-0.2,0-0.3-0.1-0.3-0.3c0-0.2,0.1-0.3,0.3-0.3c0,0,0,0,0,0h9.9c0.2,0,0.3,0.1,0.3,0.3
		C16.8,14.2,16.6,14.3,16.5,14.3z"/>
	<path class="st0" d="M2.4,13h1.8c0.1,0,0.1,0.1,0.1,0.1v1.8C4.3,15,4.2,15,4.1,15H2.4c-0.1,0-0.1-0.1-0.1-0.1v-1.8
		C2.2,13.1,2.3,13,2.4,13z"/>
	<rect x="2.5" y="13.3" class="st1" width="1.5" height="1.4"/>
	<path class="st0" d="M16.5,19.1H6.6c-0.2,0-0.3-0.1-0.3-0.2c0-0.2,0.1-0.3,0.2-0.3c0,0,0.1,0,0.1,0h9.9c0.2,0,0.3,0.2,0.2,0.3
		C16.7,19,16.6,19.1,16.5,19.1z"/>
	<path class="st0" d="M2.4,17.8h1.8c0.1,0,0.1,0.1,0.1,0.1v1.8c0,0.1-0.1,0.1-0.1,0.1H2.4c-0.1,0-0.1-0.1-0.1-0.1v-1.8
		C2.2,17.9,2.3,17.8,2.4,17.8z"/>
	<rect x="2.5" y="18.1" class="st1" width="1.5" height="1.4"/>
</g>
</svg>
