<?xml version="1.0" encoding="utf-8"?>
<!-- Generator: Adobe Illustrator 25.2.1, SVG Export Plug-In . SVG Version: 6.00 Build 0)  -->
<svg version="1.1" id="Layer_1" xmlns="http://www.w3.org/2000/svg" xmlns:xlink="http://www.w3.org/1999/xlink" x="0px" y="0px"
	 viewBox="0 0 19 23" style="enable-background:new 0 0 19 23;" xml:space="preserve">
<style type="text/css">
	.st0{fill:#e3204a;}
</style>
<g>
	<path class="st0" d="M18.1,23H0.9C0.4,23,0,22.6,0,22.1c0,0,0,0,0-0.1V0.9C0,0.4,0.4,0,0.9,0c0,0,0,0,0.1,0h17.2
		C18.6,0,19,0.4,19,0.9v21.2C19,22.6,18.6,23,18.1,23L18.1,23z M0.9,0.8c-0.1,0-0.2,0.1-0.2,0.2l0,0v21.2c0,0.1,0.1,0.2,0.2,0.2
		h17.2c0.1,0,0.2-0.1,0.2-0.2V0.9c0-0.1-0.1-0.2-0.2-0.2H0.9z"/>
	<path class="st0" d="M15.7,12.2H3.4C3.2,12.2,3,12,3,11.8c0-0.2,0.2-0.4,0.4-0.4h12.3c0.2,0,0.4,0.2,0.4,0.4
		C16,12,15.9,12.2,15.7,12.2z"/>
	<path class="st0" d="M15.7,14.9H3.4c-0.2,0-0.4-0.2-0.4-0.4c0-0.2,0.2-0.4,0.4-0.4h12.3c0.2,0,0.4,0.2,0.4,0.4
		C16,14.8,15.9,14.9,15.7,14.9z"/>
	<path class="st0" d="M15.7,17.7H3.4c-0.2,0-0.4-0.2-0.4-0.4s0.2-0.4,0.4-0.4c0,0,0,0,0,0h12.3c0.2,0,0.4,0.2,0.4,0.4
		S15.9,17.6,15.7,17.7C15.7,17.7,15.7,17.7,15.7,17.7z"/>
	<path class="st0" d="M15.7,20.4H3.4C3.2,20.4,3,20.2,3,20s0.2-0.4,0.4-0.4c0,0,0,0,0,0h12.3c0.2,0,0.4,0.2,0.4,0.4
		C16,20.2,15.9,20.4,15.7,20.4z"/>
	<path class="st0" d="M9.5,9.3c-1.8,0-3.2-1.4-3.2-3.2c0-1.8,1.4-3.2,3.2-3.2s3.2,1.4,3.2,3.2c0,0.8-0.3,1.7-0.9,2.3
		C11.2,8.9,10.3,9.3,9.5,9.3z M9.5,3.6C8.1,3.6,7,4.7,7,6.1c0,1.4,1.1,2.5,2.5,2.5c1.4,0,2.5-1.1,2.5-2.5C12,4.7,10.9,3.6,9.5,3.6
		C9.5,3.6,9.5,3.6,9.5,3.6z"/>
	<path class="st0" d="M9.5,7.9c-0.2,0-0.4-0.2-0.4-0.4V6.1c0-0.2,0.2-0.4,0.4-0.4c0.2,0,0.4,0.2,0.4,0.4v1.5
		C9.9,7.8,9.7,7.9,9.5,7.9L9.5,7.9z"/>
	<path class="st0" d="M9.9,4.9c0-0.2-0.2-0.4-0.4-0.4c-0.2,0-0.4,0.2-0.4,0.4s0.2,0.4,0.4,0.4C9.7,5.3,9.9,5.1,9.9,4.9L9.9,4.9z"/>
</g>
</svg>
