<svg width="24" height="23" viewBox="0 0 24 23" fill="none" xmlns="http://www.w3.org/2000/svg">
<path d="M5.38136 22.9701C5.11126 22.9701 4.84118 22.8802 4.60099 22.7006C4.12069 22.3413 3.94064 21.7722 4.12069 21.2032L6.19186 14.8542C6.28189 14.5847 6.19186 14.2552 5.9517 14.1055L0.54879 10.1823C0.0684833 9.82299 -0.111565 9.25397 0.0684838 8.6849C0.248549 8.11583 0.758802 7.75656 1.32916 7.75656H8.02277C8.32302 7.75656 8.59313 7.5769 8.68312 7.27734L10.7543 0.928338C10.9344 0.359271 11.4446 0 12.015 0C12.5853 0 13.0956 0.359313 13.2756 0.928338L15.3169 7.30729C15.4069 7.57677 15.677 7.78651 15.9772 7.78651H22.6708C23.2711 7.78651 23.7514 8.14582 23.9315 8.71485C24.1116 9.28387 23.9315 9.85293 23.4512 10.2123L18.0483 14.1354C17.8081 14.3151 17.7181 14.6146 17.8081 14.8841L19.8793 21.2331C20.0594 21.8022 19.8793 22.3712 19.399 22.7305C18.9187 23.0898 18.3184 23.0898 17.8381 22.7305L12.4352 18.8074C12.195 18.6277 11.8648 18.6277 11.6247 18.8074L6.22178 22.7305C5.92195 22.8803 5.65185 22.9701 5.38176 22.9701L5.38136 22.9701Z" fill="#e3204a"/>
</svg>
