<?xml version="1.0" encoding="utf-8"?>
<!-- Generator: Adobe Illustrator 25.2.1, SVG Export Plug-In . SVG Version: 6.00 Build 0)  -->
<svg version="1.1" id="Layer_1" xmlns="http://www.w3.org/2000/svg" xmlns:xlink="http://www.w3.org/1999/xlink" x="0px" y="0px"
	 viewBox="0 0 25 23.1" style="enable-background:new 0 0 25 23.1;" xml:space="preserve">
<style type="text/css">
	.st0{fill:#e3204a;}
</style>
<path class="st0" d="M14.9,19.3l-1.8,1.1L10.3,22c-0.2,0.1-0.4,0.1-0.6,0l-8.9-5.2c-0.2-0.1-0.3-0.3-0.3-0.5V6
	c0-0.2,0.1-0.4,0.3-0.5c3-1.7,6-3.4,8.9-5.2c0.2-0.1,0.4-0.1,0.6,0l9,5.2c0.2,0.1,0.3,0.3,0.3,0.4c0,0.9,0,1.9,0,2.8v0.3
	c0.4,0,0.7,0,1,0c0.6-0.1,1.2,0.3,1.4,0.9H23c0.8,0,1.5,0.6,1.5,1.4c0,0,0,0.1,0,0.1v9.8c0,0.8-0.6,1.5-1.4,1.5c0,0-0.1,0-0.1,0
	h-6.6c-0.8,0-1.5-0.6-1.5-1.4c0,0,0-0.1,0-0.1L14.9,19.3z M1.1,6.5v0.3c0,3.1,0,6.2,0,9.3c0,0.2,0.1,0.3,0.2,0.4l8.1,4.7l0.2,0.1
	c0,0,0-0.1,0-0.1v-9.5c0-0.2-0.1-0.2-0.2-0.3C7.3,10,5.2,8.8,3.1,7.6L1.1,6.5z M15.6,16.3v4.9c0,0.4,0.3,0.8,0.7,0.8
	c0,0,0.1,0,0.1,0c2.2,0,4.4,0,6.6,0c0.4,0,0.8-0.3,0.8-0.7c0,0,0-0.1,0-0.1v-9.8c0-0.4-0.3-0.8-0.7-0.8c0,0,0,0-0.1,0H22
	c-0.1,0-0.2,0.1-0.2,0.1c-0.2,0.4-0.6,0.7-1.1,0.7h-1.8c-0.5,0-0.9-0.2-1.1-0.7c-0.1-0.1-0.1-0.1-0.2-0.1h-0.9
	c-0.4-0.1-0.8,0.2-0.9,0.7c0,0.1,0,0.1,0,0.2L15.6,16.3z M10.3,21.2l0.2-0.1l4.2-2.4c0.1-0.1,0.2-0.2,0.2-0.4c0-2.2,0-4.5,0-6.8
	c-0.1-0.8,0.6-1.5,1.4-1.6c0.1,0,0.1,0,0.2,0h1c0.1,0,0.1,0,0.2-0.1c0.2-0.5,0.6-0.8,1.1-0.8V6.5l-0.1,0.1l-8.1,4.7
	c-0.1,0.1-0.2,0.2-0.2,0.3L10.3,21.2L10.3,21.2z M18.4,5.9L18.4,5.9l-3.8-2.2c-0.1,0-0.2,0-0.3,0L6.2,8.4L6,8.5l0.3,0.2
	c1.2,0.7,2.3,1.3,3.5,2c0.1,0.1,0.3,0.1,0.5,0c1.8-1,3.6-2.1,5.3-3.1L18.4,5.9z M13.7,3.2L13.7,3.2L10.1,1C10,1,9.9,1,9.8,1L1.6,5.8
	L1.5,5.9C2.7,6.6,3.9,7.3,5.1,8c0.1,0.1,0.3,0.1,0.4,0l8-4.7L13.7,3.2z M19.7,10.8h1c0.3,0.1,0.5-0.1,0.6-0.4
	c0.1-0.3-0.1-0.5-0.4-0.6c-0.1,0-0.1,0-0.2,0h-1.9c-0.3-0.1-0.5,0.1-0.6,0.4c-0.1,0.3,0.1,0.5,0.4,0.6c0.1,0,0.1,0,0.2,0H19.7z"/>
<path class="st0" d="M18.8,16.9c0,0.2,0,0.5,0,0.7c0,0.2-0.1,0.4-0.3,0.4c0,0-0.1,0-0.1,0c-0.5,0-1,0-1.5,0c-0.2,0-0.4-0.1-0.4-0.3
	c0,0,0-0.1,0-0.1c0-0.5,0-1,0-1.5c0-0.2,0.1-0.4,0.3-0.4c0,0,0.1,0,0.1,0c0.5,0,1,0,1.5,0c0.2,0,0.4,0.1,0.4,0.3c0,0,0,0.1,0,0.1
	C18.8,16.4,18.8,16.6,18.8,16.9z M18.1,16.4h-0.9v0.9h0.9V16.4z"/>
<path class="st0" d="M17.4,20.6c0.1,0.2,0.1,0.4,0,0.5c-0.2,0.1-0.5,0.2-0.7,0.1c-0.2-0.1-0.2-0.2-0.2-0.4c0-0.5,0-0.9,0-1.4
	s0.1-0.4,0.4-0.4h1.4c0.2,0,0.4,0.1,0.4,0.3s0.1,0.5-0.1,0.7s-0.4,0.1-0.6-0.2h-0.9v0.9L17.4,20.6L17.4,20.6z"/>
<path class="st0" d="M17.2,13.3C17.2,13.3,17.2,13.3,17.2,13.3v0.9l0.2,0.1c0.1,0.1,0.2,0.2,0.1,0.4c0,0.2-0.3,0.3-0.7,0.2
	c-0.2,0-0.3-0.1-0.3-0.3c0,0,0,0,0,0c0-0.6,0-1.1,0-1.7c0-0.2,0.1-0.3,0.3-0.3c0,0,0,0,0,0h1.6c0.2,0,0.3,0.1,0.3,0.3c0,0,0,0,0,0
	c0,0.2,0.1,0.4-0.2,0.6c-0.2,0.1-0.4,0-0.5-0.1c0,0-0.1-0.1-0.1-0.1H17.2z"/>
<path class="st0" d="M18.2,14l0.9-0.9c0.2-0.2,0.4-0.2,0.5-0.1s0.1,0.4-0.1,0.6l-1.1,1.1c-0.2,0.2-0.4,0.2-0.6,0s-0.3-0.3-0.5-0.5
	c-0.1-0.1-0.2-0.3,0-0.5c0,0,0,0,0,0c0.1-0.1,0.3-0.1,0.5,0c0,0,0,0,0,0L18.2,14z"/>
<path class="st0" d="M17.4,20.6L17.4,20.6c-0.1-0.2-0.1-0.4,0.1-0.6c0.4-0.2,0.5,0.2,0.8,0.3l0.9-1c0.1-0.2,0.3-0.2,0.5-0.1
	c0,0,0.1,0.1,0.1,0.1c0.1,0.1,0.1,0.3,0,0.4c-0.4,0.4-0.8,0.8-1.2,1.2c-0.1,0.1-0.3,0.2-0.5,0c0,0,0,0,0,0L17.4,20.6z"/>
<path class="st0" d="M21.6,14.1h-1c-0.3,0-0.4-0.1-0.4-0.3s0.1-0.3,0.4-0.3h2c0.2,0,0.4,0.1,0.4,0.3s-0.1,0.4-0.4,0.4H21.6z"/>
<path class="st0" d="M21.6,17.2h-1c-0.3,0-0.4-0.1-0.4-0.4s0.1-0.3,0.4-0.3h2c0.3,0,0.4,0.1,0.4,0.3s-0.2,0.3-0.5,0.3H21.6z"/>
<path class="st0" d="M21.6,19.7c0.3,0,0.7,0,1,0c0.2,0,0.3,0.2,0.3,0.3s-0.2,0.3-0.3,0.3h-2c-0.2,0-0.4-0.1-0.4-0.3s0.1-0.3,0.4-0.3
	S21.3,19.7,21.6,19.7z"/>
</svg>
