<?xml version="1.0" encoding="utf-8"?>
<!-- Generator: Adobe Illustrator 25.2.1, SVG Export Plug-In . SVG Version: 6.00 Build 0)  -->
<svg version="1.1" id="Layer_1" xmlns="http://www.w3.org/2000/svg" xmlns:xlink="http://www.w3.org/1999/xlink" x="0px" y="0px"
	 viewBox="0 0 23 23" style="enable-background:new 0 0 23 23;" xml:space="preserve">
<style type="text/css">
	.st0{fill:#e3204a;}
</style>
<path class="st0" d="M21.2,18.7c0.4-0.4,0.7-0.9,0.6-1.4c0-1.1-0.9-1.9-1.9-1.9c-1.1,0-1.9,0.9-1.9,1.9c0,0.5,0.2,1.1,0.6,1.4
	c-1.1,0.5-1.8,1.6-1.8,2.8v1.1c0,0.2,0.2,0.4,0.4,0.4h5.4c0.2,0,0.4-0.2,0.4-0.4v-1.1C23,20.2,22.3,19.2,21.2,18.7z M18.8,17.2
	c0-0.6,0.5-1.1,1.1-1.1s1.1,0.5,1.1,1.1c0,0.6-0.5,1.1-1.1,1.1l0,0C19.3,18.4,18.8,17.9,18.8,17.2z M22.2,22.2h-4.6v-0.8
	c0-1.3,1-2.3,2.3-2.3c1.3,0,2.3,1,2.3,2.3V22.2z"/>
<path class="st0" d="M0.4,23h5.4c0.2,0,0.4-0.2,0.4-0.4v-1.2c0-1.2-0.7-2.3-1.8-2.8C4.8,18.3,5,17.8,5,17.2c0-1.1-0.9-1.9-1.9-1.9
	c-1.1,0-1.9,0.9-1.9,1.9c0,0.5,0.2,1.1,0.6,1.4C0.7,19.1,0,20.2,0,21.4v1.1C0,22.8,0.1,23,0.4,23C0.4,23,0.4,23,0.4,23z M1.9,17.3
	c0-0.6,0.5-1.1,1.1-1.1s1.2,0.5,1.2,1.1c0,0.6-0.5,1.1-1.1,1.1c0,0,0,0,0,0C2.5,18.4,1.9,17.9,1.9,17.3C1.9,17.3,1.9,17.2,1.9,17.3
	L1.9,17.3z M0.8,21.4c0-1.3,1-2.3,2.3-2.3s2.3,1,2.3,2.3v0.8H0.8V21.4z"/>
<path class="st0" d="M8.4,21.4v1.1c0,0.2,0.2,0.4,0.4,0.4h5.4c0.2,0,0.4-0.2,0.4-0.4v-1.1c0-1.2-0.7-2.3-1.8-2.8
	c0.4-0.4,0.7-0.9,0.6-1.4c0-1.1-0.9-1.9-1.9-1.9s-1.9,0.9-1.9,1.9c0,0,0,0,0,0c0,0.5,0.2,1.1,0.6,1.4C9.1,19.2,8.4,20.2,8.4,21.4z
	 M10.4,17.2c0-0.6,0.5-1.1,1.1-1.1s1.2,0.5,1.2,1.1c0,0.6-0.5,1.1-1.1,1.1h0C10.9,18.4,10.4,17.9,10.4,17.2z M11.5,19.1
	c1.3,0,2.3,1,2.3,2.3v0.8H9.2v-0.8C9.2,20.2,10.2,19.1,11.5,19.1z"/>
<path class="st0" d="M11.5,2.3c-1.9,0-3.4,1.5-3.4,3.4s1.5,3.4,3.4,3.4c1.9,0,3.4-1.5,3.4-3.4S13.4,2.3,11.5,2.3
	C11.5,2.3,11.5,2.3,11.5,2.3z M11.5,8.4c-1.5,0-2.7-1.2-2.7-2.7s1.2-2.7,2.7-2.7s2.7,1.2,2.7,2.7c0,0,0,0,0,0
	C14.2,7.2,13,8.4,11.5,8.4z"/>
<path class="st0" d="M16.9,7.3c0.2,0,0.4-0.2,0.4-0.4V4.6c0-0.2-0.2-0.4-0.4-0.4h-0.6C16.1,4,16,3.8,15.9,3.5l0.4-0.4
	c0.1-0.1,0.1-0.2,0.1-0.3c0-0.1,0-0.2-0.1-0.3l-1.6-1.6c-0.1-0.1-0.4-0.2-0.5,0c0,0,0,0,0,0l-0.4,0.4C13.5,1.2,13.3,1.1,13,1V0.4
	C13,0.2,12.9,0,12.7,0c0,0,0,0,0,0h-2.3C10.1,0,10,0.2,10,0.4v0V1C9.7,1.1,9.5,1.2,9.3,1.3L8.8,0.9c-0.1-0.1-0.4-0.2-0.5,0
	c0,0,0,0,0,0L6.6,2.5c-0.1,0.2-0.1,0.4,0,0.5l0.4,0.5C7,3.8,6.9,4,6.8,4.2H6.2c-0.2,0-0.4,0.2-0.4,0.4l0,0v2.3
	c0,0.2,0.2,0.4,0.4,0.4h0.6C6.9,7.5,7,7.8,7.1,8L6.6,8.5C6.5,8.6,6.5,8.8,6.6,9l1.6,1.6c0.1,0.1,0.4,0.2,0.5,0c0,0,0,0,0,0l0.4-0.4
	c0.2,0.1,0.5,0.2,0.7,0.3v0.6c0,0.2,0.2,0.4,0.4,0.4l0,0h2.3c0.2,0,0.4-0.2,0.4-0.4l0,0v-0.6c0.2-0.1,0.5-0.2,0.7-0.3l0.4,0.4
	c0.1,0.1,0.4,0.2,0.5,0c0,0,0,0,0,0L16.4,9c0.1-0.1,0.2-0.4,0-0.5c0,0,0,0,0,0L15.9,8c0.1-0.2,0.2-0.5,0.3-0.7L16.9,7.3z M15.5,7.1
	c-0.1,0.2-0.1,0.4-0.2,0.6c-0.1,0.3-0.1,0.7,0.1,0.9l0.2,0.2l-1.1,1.1l-0.2-0.2c-0.2-0.2-0.6-0.3-0.9-0.1c-0.2,0.1-0.4,0.2-0.6,0.2
	c-0.3,0.1-0.5,0.4-0.5,0.7v0.2h-1.5v-0.2c0-0.3-0.2-0.6-0.5-0.7C10,9.7,9.8,9.6,9.6,9.5C9.3,9.4,8.9,9.4,8.7,9.7L8.5,9.8L7.5,8.7
	l0.2-0.2C7.9,8.3,7.9,8,7.8,7.7C7.7,7.5,7.6,7.3,7.5,7.1C7.4,6.8,7.1,6.5,6.8,6.5H6.5V5h0.2c0.3,0,0.6-0.2,0.7-0.5
	c0.1-0.2,0.1-0.4,0.2-0.6C7.9,3.6,7.8,3.2,7.6,3L7.5,2.8l1.1-1.1l0.2,0.2C8.9,2.1,9.3,2.2,9.6,2c0.2-0.1,0.4-0.2,0.6-0.2
	c0.3-0.1,0.6-0.4,0.5-0.8V0.8h1.5V1c0,0.3,0.2,0.6,0.5,0.7C13,1.8,13.2,1.9,13.4,2c0.3,0.2,0.7,0.1,0.9-0.1l0.2-0.2l1.1,1.1L15.4,3
	c-0.2,0.2-0.3,0.6-0.1,0.9c0.1,0.2,0.2,0.4,0.2,0.6C15.6,4.8,15.9,5,16.2,5h0.2v1.5h-0.2C15.9,6.5,15.6,6.8,15.5,7.1z"/>
<path class="st0" d="M13.2,5.4L11,3.9c-0.1-0.1-0.3-0.1-0.4,0c-0.1,0.1-0.2,0.2-0.2,0.3v3c0,0.1,0.1,0.3,0.2,0.3c0.1,0,0.1,0,0.2,0
	c0.1,0,0.1,0,0.2,0l2.3-1.5c0.1-0.1,0.2-0.2,0.2-0.3C13.5,5.6,13.4,5.5,13.2,5.4L13.2,5.4z M11.1,6.6V5l1.2,0.8L11.1,6.6z"/>
<path class="st0" d="M11.1,13.8h0.8v0.8h-0.8V13.8z"/>
<path class="st0" d="M11.1,12.3h0.8V13h-0.8V12.3z"/>
<path class="st0" d="M4.2,5.4H5v0.8H4.2V5.4z"/>
<path class="st0" d="M2.7,5.4h0.8v0.8H2.7V5.4z"/>
<path class="st0" d="M2.7,6.9h0.8v0.8H2.7V6.9z"/>
<path class="st0" d="M2.7,8.4h0.8v0.8H2.7V8.4z"/>
<path class="st0" d="M2.7,10h0.8v0.8H2.7V10z"/>
<path class="st0" d="M2.7,11.5h0.8v0.8H2.7V11.5z"/>
<path class="st0" d="M2.7,13h0.8v0.8H2.7V13z"/>
<path class="st0" d="M18,5.4h0.8v0.8H18V5.4z"/>
<path class="st0" d="M19.5,5.4h0.8v0.8h-0.8V5.4z"/>
<path class="st0" d="M19.5,6.9h0.8v0.8h-0.8V6.9z"/>
<path class="st0" d="M19.5,8.4h0.8v0.8h-0.8V8.4z"/>
<path class="st0" d="M19.5,10h0.8v0.8h-0.8V10z"/>
<path class="st0" d="M19.5,11.5h0.8v0.8h-0.8V11.5z"/>
<path class="st0" d="M19.5,13h0.8v0.8h-0.8V13z"/>
</svg>
