<?xml version="1.0" encoding="utf-8"?>
<!-- Generator: Adobe Illustrator 25.2.1, SVG Export Plug-In . SVG Version: 6.00 Build 0)  -->
<svg version="1.1" id="Layer_1" xmlns="http://www.w3.org/2000/svg" xmlns:xlink="http://www.w3.org/1999/xlink" x="0px" y="0px"
	 viewBox="0 0 24 22.8" style="enable-background:new 0 0 24 22.8;" xml:space="preserve">
<style type="text/css">
	.st0{fill:#e3204a;}
</style>
<path class="st0" d="M23.2,20.9h-0.2v-4.4c0.2-0.1,0.3-0.2,0.4-0.3c0.1-0.1,0.2-0.3,0.2-0.5V14c0-0.5-0.4-0.9-0.9-0.9H22v-0.5l0,0
	c0.2,0,0.3-0.1,0.3-0.3c0-0.2-0.1-0.3-0.3-0.3c0,0,0,0,0,0h-1.6c-0.2,0-0.3,0.1-0.3,0.3c0,0.2,0.1,0.3,0.3,0.3l0,0v0.5h-5.8L14.4,13
	l0,0c-0.8-0.9-2-1.5-3.2-1.5h-0.8v-0.9c1-0.8,1.6-2,1.6-3.3V5.6h0.5c0.2,0,0.3-0.1,0.3-0.3c0-1-0.3-1.9-0.9-2.7
	c-0.3-0.3-0.6-0.6-1-0.8l0,0c0.1-0.2,0.2-0.4,0.2-0.6V0.3C11.1,0.1,11,0,10.8,0c0,0,0,0,0,0H6.4c-0.8,0-1.5,0.4-2,1
	C3.8,1.6,3.5,2.4,3.5,3.3v4C3.5,8.5,4,9.7,5,10.5v1H4.3c-2.3,0-4.2,1.9-4.2,4.2v3.7c0,0.2,0.1,0.3,0.2,0.3c0,0,0,0,0,0H13v0.2
	c0,0.1,0.1,0.3,0.2,0.3c0,0,0,0,0,0l0,0c0.2,0,0.3-0.1,0.3-0.3l0,0v-0.2h1.5c0.2,0,0.3-0.1,0.3-0.3c0,0,0,0,0,0v-2.8
	c0.1,0,0.1-0.1,0.2-0.1h3.3l-1.4,4.4h-5.7c-0.5,0-0.9,0.4-0.9,0.9c0,0,0,0,0,0v0.6c0,0.2,0.1,0.3,0.3,0.3h0h12.6
	c0.2,0,0.3-0.1,0.3-0.3c0,0,0,0,0,0v-0.7c0-0.2-0.1-0.5-0.3-0.6C23.6,21,23.4,20.9,23.2,20.9L23.2,20.9z M20.9,12.6h0.4v0.5h-0.4
	V12.6z M4.1,3.3c0-0.7,0.2-1.4,0.7-1.9c0.4-0.5,1-0.8,1.6-0.8h4.1v0.6c0,0.1,0,0.1-0.1,0.2c0,0-0.1,0.1-0.1,0.1H9.5
	c-0.2,0-0.3,0.1-0.3,0.3C9.2,1.9,9.3,2,9.5,2h0.1C11,2.2,12.2,3.5,12.2,5h-1.5c0.2-0.2,0.3-0.5,0.4-0.8c0-0.1,0-0.2,0-0.2
	c0-0.1-0.1-0.1-0.2-0.2c-0.1,0-0.2,0-0.2,0c-0.1,0-0.1,0.1-0.1,0.2c-0.4,0.9-0.7,1-1,1C8.9,4.9,8.1,4.5,7.6,4
	C7.1,3.6,6.4,3.4,5.8,3.6C5.1,3.8,4.5,4.3,4.1,4.9L4.1,3.3z M7.4,19.1H3.7v-1.6c0-0.2-0.1-0.3-0.3-0.3c-0.2,0-0.3,0.1-0.3,0.3v1.6
	H0.6v-3.4c0-2,1.6-3.7,3.7-3.7h0.8c0.1,0.9,0.4,1.7,1,2.4l1.3,1.5L7.4,19.1z M6.5,14c-0.6-0.7-0.9-1.5-0.9-2.3c0-0.1,0-0.2,0-0.3v-1
	c0-0.1,0-0.2-0.1-0.3C4.6,9.4,4.1,8.4,4.1,7.3V6c0.1-0.3,0.3-0.6,0.5-0.9C5,4.6,5.4,4.2,6,4c0.4-0.1,0.9,0,1.2,0.3
	C7.9,5,8.7,5.4,9.7,5.6h1.7v1.7l0,0c0,2-1.6,3.6-3.6,3.6c-0.4,0-0.8-0.1-1.2-0.2c-0.2,0-0.3,0-0.4,0.2c-0.1,0.2,0,0.3,0.2,0.4
	c0,0,0,0,0,0c1.1,0.4,2.3,0.3,3.3-0.3v0.8c0,0.8-0.3,1.6-0.9,2.3l-1.1,1.4L6.5,14z M11.6,19.1H8v-3.1l1.3-1.6c0.6-0.7,0.9-1.5,1-2.3
	h0.8c0.9,0,1.7,0.3,2.4,0.9h-1c-0.1,0-0.2,0.1-0.3,0.2H12c-0.5,0-0.9,0.4-0.9,0.9v3.8c0,0.2,0.1,0.3,0.3,0.3h0h0.2L11.6,19.1z
	 M13.7,13.5v1.8c0,0.1-0.1,0.3-0.3,0.3c0,0,0,0,0,0h-0.3c-0.2,0-0.3-0.1-0.3-0.2v-1.8L13.7,13.5z M11.7,17.2h2.9v0.3h-2.9L11.7,17.2
	z M12.2,19.1V19c0.1,0.1,0.2,0.1,0.3,0.1H12.2z M12.7,18.5L12.7,18.5c-0.2,0-0.3-0.1-0.3-0.3v-0.1h1.8v0.1c0,0.2-0.1,0.3-0.3,0.3
	H12.7z M14.7,19.1H14c0.2-0.1,0.4-0.2,0.5-0.3c0.1-0.2,0.2-0.4,0.2-0.6v-0.1l0,0L14.7,19.1z M15.5,16c-0.3,0-0.6,0.1-0.7,0.4
	c-0.1,0.1-0.1,0.2-0.1,0.3h-2.9V14c0-0.2,0.1-0.3,0.3-0.3h0.2v1.6c0,0.5,0.4,0.8,0.9,0.8h0.3c0.5,0,0.9-0.4,0.9-0.8c0,0,0,0,0,0
	v-1.6h8.3c0.2,0,0.3,0.2,0.3,0.3v1.7c0,0.2-0.1,0.3-0.3,0.3c0,0,0,0,0,0L15.5,16z M23.4,22.2H11.4v-0.4c0-0.2,0.1-0.3,0.3-0.3
	c0,0,0,0,0,0h6.9c0.2,0,0.3-0.1,0.3-0.3c0-0.2-0.1-0.3-0.3-0.3H18l1.4-4.4h2.9v4.4h-2.3c-0.2,0-0.3,0.1-0.3,0.3
	c0,0.2,0.1,0.3,0.3,0.3h3.1c0.2,0,0.3,0.1,0.3,0.3L23.4,22.2z"/>
<path class="st0" d="M14,14.1h-3.9c-0.2,0-0.3,0.1-0.3,0.3v0.9c0,0.2,0.1,0.3,0.3,0.3h0H14c0.2,0,0.3-0.1,0.3-0.3l0,0v-0.9
	C14.2,14.2,14.1,14.1,14,14.1z M13.7,15h-3.3v-0.3h3.3L13.7,15z"/>
</svg>
