<?xml version="1.0" encoding="utf-8"?>
<!-- Generator: Adobe Illustrator 25.2.1, SVG Export Plug-In . SVG Version: 6.00 Build 0)  -->
<svg version="1.1" id="Layer_1" xmlns="http://www.w3.org/2000/svg" xmlns:xlink="http://www.w3.org/1999/xlink" x="0px" y="0px"
	 viewBox="0 0 18.7 22" style="enable-background:new 0 0 18.7 22;" xml:space="preserve">
<style type="text/css">
	.st0{fill:#e3204a;}
</style>
<path class="st0" d="M9.3,0.5C9.2,0.5,9.1,0.6,9,0.7L8.2,2L6.8,2.3c-0.2,0-0.3,0.2-0.3,0.4c0,0.1,0,0.1,0.1,0.2l1,1.1L7.4,5.5
	c0,0.2,0.1,0.4,0.3,0.4c0.1,0,0.1,0,0.2,0l1.4-0.6l1.4,0.6c0.2,0.1,0.4,0,0.5-0.2c0-0.1,0-0.1,0-0.2L11.1,4l1-1.1
	c0.1-0.1,0.1-0.4,0-0.5c0,0-0.1-0.1-0.2-0.1L10.4,2L9.7,0.7C9.6,0.6,9.5,0.5,9.3,0.5L9.3,0.5z M9.3,1.5l0.6,0.9
	c0,0.1,0.1,0.1,0.2,0.2l1.1,0.2l-0.7,0.8c-0.1,0.1-0.1,0.2-0.1,0.3l0.1,1l-1-0.4c-0.1,0-0.2,0-0.3,0l-1,0.4l0.1-1
	c0-0.1,0-0.2-0.1-0.3L7.5,2.8l1.1-0.2c0.1,0,0.2-0.1,0.2-0.2L9.3,1.5z M2.2,1.9C2.1,1.9,2,2,2,2.1L1.4,3L0.3,3.3
	C0.1,3.3,0,3.5,0,3.7c0,0.1,0,0.1,0.1,0.2l0.8,0.9L0.8,5.8c0,0.2,0.1,0.4,0.3,0.4c0.1,0,0.1,0,0.2,0l1-0.4l1,0.4
	c0.2,0.1,0.4,0.1,0.5-0.1c0.1-0.1,0.1-0.2,0.1-0.3L3.8,4.7l0.7-0.8c0.1-0.1,0.1-0.4,0-0.5c0,0-0.1-0.1-0.2-0.1L3.2,3.1L2.6,2.1
	C2.6,2,2.4,2,2.2,1.9L2.2,1.9z M16.3,1.9c-0.1,0-0.2,0.1-0.3,0.2L15.5,3l-1.1,0.3c-0.2,0-0.3,0.2-0.3,0.4c0,0.1,0,0.1,0.1,0.2
	l0.7,0.8l-0.1,1.1c0,0.2,0.1,0.4,0.3,0.4c0.1,0,0.1,0,0.2,0l1-0.4l1,0.4c0.2,0.1,0.4,0,0.5-0.2c0-0.1,0-0.1,0-0.2V4.7l0.7-0.8
	c0.1-0.1,0.1-0.4,0-0.5c0,0-0.1-0.1-0.2-0.1l-1.1-0.3l-0.6-0.9C16.6,2,16.5,2,16.3,1.9L16.3,1.9z M2.3,2.9l0.3,0.6
	c0,0.1,0.1,0.2,0.2,0.2l0.7,0.2L3.1,4.4C3,4.5,3,4.6,3,4.7L3,5.3L2.4,5.1c-0.1,0-0.2,0-0.3,0L1.5,5.3l0.1-0.7c0-0.1,0-0.2-0.1-0.3
	L1.1,3.9l0.7-0.1c0.1,0,0.2-0.1,0.2-0.2L2.3,2.9z M16.4,2.9l0.4,0.6c0.1,0.1,0.1,0.1,0.2,0.2l0.7,0.2l-0.4,0.5
	c-0.1,0.1-0.1,0.2-0.1,0.3l0.1,0.7L16.5,5c-0.1,0-0.2,0-0.3,0l-0.6,0.3l0.1-0.7c0-0.1,0-0.2-0.1-0.3l-0.4-0.5l0.7-0.1
	c0.1,0,0.2-0.1,0.2-0.2L16.4,2.9z M2.2,6.9c-0.8,0-1.4,0.6-1.4,1.4c0,0,0,0,0,0v12.2c0,0.8,0.6,1.4,1.4,1.4h0h14.3
	c0.8,0,1.4-0.6,1.4-1.4c0,0,0,0,0,0V8.4c0-0.8-0.6-1.4-1.4-1.4c0,0,0,0,0,0H2.2z M2.2,7.7h5v3.6c0,0.2,0.2,0.4,0.4,0.4
	c0.1,0,0.1,0,0.2-0.1l1.6-1l1.6,1c0.2,0.1,0.4,0.1,0.5-0.1c0-0.1,0.1-0.1,0.1-0.2V7.7h5c0.4,0,0.7,0.3,0.7,0.7c0,0,0,0,0,0v12.2
	c0,0.4-0.3,0.7-0.7,0.7c0,0,0,0,0,0H2.2c-0.4,0-0.7-0.3-0.7-0.7c0,0,0,0,0,0V8.4C1.5,8,1.8,7.7,2.2,7.7C2.2,7.7,2.2,7.7,2.2,7.7z
	 M7.9,7.7h2.9v3L9.5,9.9c-0.1-0.1-0.3-0.1-0.4,0l-1.2,0.8V7.7z M8.9,11.9c0,0.1-0.1,0.2-0.1,0.4c0,0.2-0.1,0.5-0.1,0.8
	c0,0.5-0.2,1-0.6,1.4c-0.3,0.1-0.5,0.2-0.7,0.4l0,0c-0.2-0.3-0.5-0.4-0.9-0.4H4.7c-0.6,0-1.1,0.4-1.1,1c0,0,0,0.1,0,0.1L4,19.5
	c0,0.6,0.5,1,1.1,1h1.4c0.4,0,0.7-0.2,0.9-0.5c0.2,0.1,0.3,0.1,0.5,0.1h4.3c0.3,0,0.5-0.1,0.7-0.3c0.1-0.2,0.3-0.4,0.3-0.6
	c0.2-0.5,0.5-1.2,0.7-1.9c0.1-0.3,0.2-0.6,0.3-0.9c0.1-0.2,0.1-0.4,0.1-0.6c0-0.6-0.5-1.1-1.1-1.1h-2.2c0.1-0.5,0.1-1.1,0-1.6
	c-0.1-0.4-0.2-0.8-0.5-1.1c-0.3-0.4-0.8-0.5-1.2-0.5c-0.1,0-0.2,0-0.3,0.1C9,11.7,9,11.8,8.9,11.9L8.9,11.9z M10,12.6
	c0.2,0.2,0.3,0.5,0.3,0.8c0.1,0.6,0.1,1.2,0,1.8c0,0.2,0.2,0.4,0.4,0.4l0,0h2.5c0.2,0,0.4,0.2,0.4,0.4c0,0.1-0.1,0.3-0.1,0.4
	c-0.1,0.2-0.2,0.5-0.3,0.8c-0.2,0.6-0.5,1.3-0.7,1.9c0,0.1-0.1,0.3-0.2,0.4c0,0.1-0.1,0.1-0.2,0.1H7.9c-0.2,0-0.4-0.2-0.4-0.4l0,0
	v-3.2c0-0.2,0.1-0.3,0.2-0.4c0.2-0.1,0.4-0.2,0.7-0.4c0.6-0.5,1-1.2,1-1.9c0.1-0.3,0.1-0.7,0.1-0.9C9.7,12.3,9.9,12.4,10,12.6z
	 M4.7,15.2h1.8c0.2,0,0.4,0.1,0.4,0.3c0,0,0,0,0,0v3.9c0,0.2-0.2,0.4-0.4,0.4l0,0H5c-0.2,0-0.4-0.2-0.4-0.4l-0.4-3.9
	C4.3,15.3,4.5,15.2,4.7,15.2C4.7,15.2,4.7,15.2,4.7,15.2z M5.8,18.4c-0.2,0-0.4,0.2-0.4,0.4c0,0.2,0.2,0.4,0.4,0.4
	c0.2,0,0.4-0.2,0.4-0.4S6,18.4,5.8,18.4L5.8,18.4z"/>
</svg>
