<?xml version="1.0" encoding="utf-8"?>
<!-- Generator: Adobe Illustrator 25.2.1, SVG Export Plug-In . SVG Version: 6.00 Build 0)  -->
<svg version="1.1" id="Layer_1" xmlns="http://www.w3.org/2000/svg" xmlns:xlink="http://www.w3.org/1999/xlink" x="0px" y="0px"
	 viewBox="0 0 22.5 22.5" style="enable-background:new 0 0 22.5 22.5;" xml:space="preserve">
<style type="text/css">
	.st0{fill:#e3204a;}
</style>
<path class="st0" d="M16.3,0c0.2,0.1,0.4,0.2,0.6,0.3c0.3,0.3,0.5,0.6,0.5,1c0,0.1,0,0.3,0.1,0.3c0.2,0.1,0.4,0.2,0.6,0.2
	c0,0,0.1,0,0.1-0.1s0.3-0.2,0.5-0.3c0.5-0.3,1.1-0.2,1.5,0.1c0.3,0.2,0.5,0.5,0.7,0.7c0.4,0.4,0.4,1,0.1,1.5L20.8,4
	c-0.3,0.4-0.3,0.4-0.1,0.9c0,0.1,0.1,0.1,0.2,0.1c0.2,0.1,0.4,0.1,0.6,0.1c0.6,0.1,1,0.6,1,1.2c0,0.3,0,0.6,0,0.9
	c0,0.6-0.4,1.1-1,1.2l-0.3,0.1c-0.3,0-0.5,0.2-0.6,0.4c-0.1,0.2,0,0.4,0.1,0.5c0.3,0.3,0.4,0.6,0.4,1c0,0.3-0.1,0.6-0.3,0.8
	c-0.2,0.2-0.5,0.5-0.7,0.7c-0.4,0.4-1.1,0.5-1.6,0.2c-0.1,0-0.2-0.1-0.2-0.1c-0.2-0.2-0.5-0.2-0.7-0.1c-0.2,0.1-0.3,0.3-0.3,0.5
	c0,0.5-0.2,0.9-0.6,1.1c-0.2,0.1-0.4,0.2-0.6,0.2c-0.3,0-0.7,0-1,0c-0.5,0-1-0.4-1.1-0.9c0-0.1,0-0.2-0.1-0.2c0-0.3-0.2-0.6-0.6-0.7
	c-0.1-0.1-0.2-0.1-0.3,0c-0.3,0.2-0.6,0.4-0.9,0.5c-0.4,0.1-0.7-0.1-1-0.3c-0.3-0.2-0.5-0.5-0.7-0.7c-0.4-0.4-0.4-1-0.1-1.5
	c0-0.1,0.1-0.1,0.1-0.2c0.3-0.3,0.2-0.6,0.1-0.9c-0.1-0.1-0.1-0.1-0.2-0.1c-0.2,0-0.4-0.1-0.6-0.1C9.2,8.3,8.8,7.9,8.8,7.3
	c0-0.3,0-0.6,0-0.9c0-0.6,0.4-1.1,1.1-1.2l0.3-0.1c0.3,0,0.4-0.1,0.5-0.4s0-0.5-0.1-0.7C9.9,3.5,10,2.7,10.5,2.2c0,0,0,0,0,0
	c0.2-0.2,0.3-0.4,0.5-0.5c0.4-0.4,1-0.4,1.5-0.1c0.1,0,0.1,0.1,0.2,0.1c0.3,0.3,0.6,0.2,0.9,0c0.1,0,0.1-0.1,0.1-0.2
	c0-0.2,0-0.3,0.1-0.5c0.1-0.5,0.5-0.9,0.9-1c0,0,0,0,0.1,0L16.3,0z M18.1,10.5c0.1,0,0.2,0.1,0.4,0.2c0.2,0.1,0.4,0.3,0.6,0.4
	c0.1,0.1,0.2,0.1,0.3,0c0,0,0,0,0,0c0.1-0.1,0.3-0.3,0.4-0.4c0.1-0.1,0.1-0.2,0-0.3c0,0,0,0,0,0c-0.1-0.2-0.3-0.4-0.4-0.6
	c-0.2-0.2-0.2-0.5-0.1-0.7c0.1-0.3,0.3-0.7,0.4-1c0.1-0.2,0.3-0.4,0.6-0.4l0.8-0.1c0.1,0,0.2-0.1,0.2-0.2c0,0,0,0,0,0
	c0-0.2,0-0.4,0-0.6c0-0.1-0.1-0.3-0.2-0.3c0,0,0,0,0,0l-0.8-0.1c-0.2,0-0.4-0.2-0.5-0.4c-0.1-0.3-0.2-0.7-0.4-1
	c-0.1-0.2-0.1-0.5,0.1-0.7l0.4-0.6C20,3.3,20,3.2,20,3.1c0,0,0,0,0,0l-0.4-0.4c-0.1-0.1-0.2-0.1-0.3,0c0,0,0,0,0,0l-0.6,0.4
	c-0.2,0.2-0.5,0.2-0.7,0.1c-0.3-0.2-0.7-0.3-1-0.4c-0.2-0.1-0.4-0.3-0.4-0.5c0-0.3-0.1-0.5-0.1-0.8S16.1,1.2,16,1.2h-0.6
	c-0.1,0-0.2,0.1-0.2,0.2c0,0,0,0,0,0c0,0.2-0.1,0.5-0.1,0.8c0,0.3-0.2,0.5-0.5,0.6c-0.3,0.1-0.7,0.3-1,0.4c-0.2,0.1-0.5,0.1-0.7-0.1
	l-0.6-0.4c-0.1-0.1-0.2-0.1-0.3,0c0,0,0,0,0,0c-0.1,0.1-0.3,0.3-0.4,0.4c-0.1,0.1-0.1,0.3,0,0.4c0,0,0,0,0,0
	c0.2,0.2,0.3,0.4,0.5,0.6C12,4.2,12,4.5,11.9,4.7c-0.2,0.3-0.3,0.7-0.4,1c-0.1,0.2-0.3,0.4-0.5,0.4l-0.8,0.1c-0.1,0-0.2,0.1-0.2,0.2
	c0,0,0,0,0,0.1c0,0.2,0,0.4,0,0.6c0,0.1,0.1,0.2,0.2,0.2c0,0,0,0,0,0L11,7.6c0.3,0,0.5,0.2,0.6,0.5c0.1,0.3,0.3,0.7,0.4,1
	C12,9.2,12,9.5,11.9,9.7c-0.1,0.2-0.3,0.4-0.4,0.6c-0.1,0.1-0.1,0.2,0,0.3c0,0,0,0,0,0c0.1,0.1,0.3,0.3,0.4,0.4
	c0.1,0.1,0.2,0.1,0.3,0c0,0,0,0,0,0l0.6-0.4c0.2-0.2,0.5-0.2,0.7-0.1c0.3,0.1,0.6,0.3,1,0.4c0.3,0.1,0.4,0.3,0.5,0.6
	c0,0.2,0.1,0.5,0.1,0.8c0,0.1,0.1,0.2,0.2,0.2c0,0,0,0,0,0h0.6c0.2,0,0.2-0.1,0.3-0.2s0.1-0.5,0.1-0.7c0-0.3,0.2-0.5,0.5-0.6
	c0.3-0.1,0.6-0.3,1-0.4C17.9,10.6,18,10.6,18.1,10.5z"/>
<path class="st0" d="M0,13.2c0.1-0.2,0.1-0.3,0.2-0.5C0.4,12.3,0.8,12,1.3,12c0.5,0,0.9-0.3,1-0.8c0.1-0.2,0.1-0.4-0.1-0.6
	C2.1,10.4,2,10.2,1.9,10C1.6,9.5,1.6,8.9,2,8.4c0.3-0.4,0.6-0.7,1-1C3.5,7,4.1,7,4.7,7.3c0.2,0.1,0.5,0.3,0.7,0.4
	c0.1,0.1,0.2,0.1,0.3,0c0.2-0.1,0.4-0.2,0.6-0.3c0.1,0,0.1-0.1,0.2-0.2C6.5,7,6.5,6.8,6.6,6.6c0.1-0.3,0.3-0.5,0.7-0.5
	c0.3,0,0.6,0.3,0.5,0.6c0,0,0,0.1,0,0.1C7.7,7.2,7.6,7.6,7.5,8c0,0.2-0.2,0.4-0.4,0.4C6.7,8.7,6.2,8.8,5.8,9C5.6,9.2,5.3,9.2,5.1,9
	C4.8,8.8,4.5,8.6,4.2,8.4C4,8.2,3.8,8.2,3.7,8.4c0,0,0,0,0,0.1L3,9C2.9,9.2,2.8,9.4,3,9.5c0,0,0,0,0,0l0.6,0.9
	c0.2,0.2,0.2,0.5,0.1,0.8c-0.2,0.4-0.4,0.8-0.5,1.2c-0.1,0.3-0.3,0.5-0.6,0.5l-1,0.2c-0.3,0.1-0.3,0.1-0.4,0.4v0.9
	c0,0.3,0.1,0.4,0.4,0.4l1,0.2c0.3,0,0.5,0.2,0.6,0.5c0.2,0.4,0.3,0.8,0.5,1.2c0.1,0.2,0.1,0.5-0.1,0.7L3,18.3
	c-0.2,0.1-0.2,0.4-0.1,0.5c0,0,0,0,0.1,0.1l0.6,0.6c0.1,0.2,0.4,0.2,0.5,0.1c0,0,0,0,0.1-0.1c0.3-0.2,0.6-0.4,0.8-0.6
	c0.2-0.1,0.5-0.1,0.7,0c0.4,0.2,0.8,0.4,1.2,0.5c0.3,0.1,0.5,0.3,0.5,0.6l0.2,1c0.1,0.3,0.2,0.4,0.4,0.4H9c0.2,0,0.4-0.1,0.4-0.3
	c0,0,0,0,0,0c0.1-0.3,0.1-0.6,0.2-1c0-0.3,0.3-0.6,0.6-0.7c0.4-0.1,0.8-0.3,1.1-0.5c0.3-0.2,0.6-0.1,0.8,0.1l0.8,0.6
	c0.2,0.1,0.4,0.1,0.5,0c0,0,0,0,0,0l0.6-0.6c0.2-0.2,0.2-0.4,0.1-0.6s-0.4-0.5-0.6-0.8c-0.1-0.2-0.1-0.5,0-0.7
	c0.2-0.4,0.4-0.8,0.5-1.3c0.1-0.2,0.3-0.4,0.6-0.5l1-0.2c0.1,0,0.2,0,0.4,0c0.3,0.1,0.4,0.3,0.4,0.5c0,0.3-0.2,0.5-0.4,0.5
	c-0.2,0-0.5,0.1-0.7,0.1S15,16,15,16.2c0,0.1-0.1,0.2-0.1,0.4c-0.2,0.3-0.2,0.7,0.1,0.9c0,0,0,0,0,0c0.3,0.3,0.4,0.7,0.5,1
	c0,0.4-0.1,0.8-0.4,1.1c-0.3,0.3-0.5,0.6-0.8,0.8c-0.5,0.5-1.2,0.5-1.8,0.1c-0.2-0.1-0.4-0.3-0.6-0.4c-0.1-0.1-0.2-0.1-0.4,0
	c-0.2,0.1-0.4,0.2-0.6,0.2c-0.1,0-0.2,0.2-0.2,0.3c0,0.2-0.1,0.5-0.1,0.7c-0.1,0.7-0.7,1.1-1.4,1.1h-1c-0.8,0-1.5-0.5-1.6-1.3
	c0-0.2-0.1-0.3-0.1-0.5c0-0.2-0.1-0.3-0.3-0.3C6,20.2,5.8,20.1,5.6,20c-0.1,0-0.2,0-0.3,0c-0.2,0.1-0.4,0.3-0.7,0.5
	c-0.5,0.3-1.2,0.3-1.7-0.1c-0.3-0.3-0.6-0.6-0.9-0.9c-0.4-0.5-0.5-1.2-0.2-1.8c0.1-0.2,0.3-0.4,0.5-0.7c0-0.1,0-0.2,0-0.2
	c-0.1-0.2-0.2-0.5-0.3-0.7C2.1,16.1,2,16,1.9,16c-0.2-0.1-0.5-0.1-0.7-0.1c-0.5-0.1-1-0.5-1.2-1c0,0,0-0.1,0-0.1V13.2z"/>
<path class="st0" d="M8.5,17.8c-2.1,0-3.8-1.7-3.8-3.8c0-2.1,1.7-3.8,3.8-3.8c0.3,0,0.6,0.2,0.6,0.6c0,0.3-0.2,0.6-0.5,0.6
	c-0.6,0-1.3,0.2-1.8,0.7c-1.1,1-1.2,2.7-0.3,3.8s2.7,1.2,3.8,0.3c0.5-0.5,0.9-1.1,0.9-1.8c0-0.1,0-0.3,0.1-0.4
	c0.1-0.3,0.4-0.4,0.6-0.3c0.3,0.1,0.5,0.3,0.4,0.6c0,1.9-1.4,3.5-3.2,3.8C8.9,17.8,8.8,17.8,8.5,17.8z"/>
<path class="st0" d="M15.6,9.6c-1.5,0-2.7-1.2-2.7-2.7c0-1.5,1.2-2.7,2.7-2.7c1.5,0,2.7,1.2,2.7,2.7c0,0,0,0,0,0
	C18.4,8.4,17.1,9.6,15.6,9.6C15.6,9.6,15.6,9.6,15.6,9.6z M15.6,8.4c0.9,0,1.6-0.7,1.6-1.6c0.1-0.9-0.6-1.6-1.5-1.7
	c-0.9-0.1-1.6,0.6-1.7,1.5c0,0.1,0,0.2,0,0.3C14.1,7.7,14.8,8.4,15.6,8.4z"/>
</svg>
