<?xml version="1.0" encoding="utf-8"?>
<!-- Generator: Adobe Illustrator 25.2.1, SVG Export Plug-In . SVG Version: 6.00 Build 0)  -->
<svg version="1.1" id="Layer_1" xmlns="http://www.w3.org/2000/svg" xmlns:xlink="http://www.w3.org/1999/xlink" x="0px" y="0px"
	 viewBox="0 0 24.6 23.2" style="enable-background:new 0 0 24.6 23.2;" xml:space="preserve">
<style type="text/css">
	.st0{fill:#e3204a;}
</style>
<path class="st0" d="M1.6,11.4c0.2,0,0.4-0.2,0.4-0.4V4.8h20.5v5.3c0,0.2,0.2,0.4,0.4,0.4s0.4-0.2,0.4-0.4V0.7
	c0-0.2-0.2-0.4-0.4-0.4c0,0,0,0,0,0H1.6c-0.2,0-0.4,0.2-0.4,0.4c0,0,0,0,0,0v10.2C1.2,11.2,1.4,11.4,1.6,11.4
	C1.6,11.4,1.6,11.4,1.6,11.4z M22.5,1.1V4H2V1.1H22.5z"/>
<path class="st0" d="M22.9,19.5c-0.2,0-0.4,0.2-0.4,0.4v1.2H12.3c-0.2,0-0.4,0.2-0.4,0.4s0.2,0.4,0.4,0.4c0,0,0,0,0,0h10.6
	c0.2,0,0.4-0.2,0.4-0.4V20C23.3,19.7,23.2,19.5,22.9,19.5z"/>
<path class="st0" d="M24.5,14l-2.6-3.3c-0.2-0.2-0.4-0.2-0.6,0c0,0,0,0,0,0L18.7,14c-0.1,0.1-0.1,0.3,0,0.4c0.1,0.1,0.2,0.2,0.4,0.2
	h1.3v3.3c0,0.2,0.2,0.4,0.4,0.4h1.6c0.2,0,0.4-0.2,0.4-0.4v-3.3h1.3c0.2,0,0.3-0.1,0.4-0.2C24.7,14.3,24.6,14.1,24.5,14L24.5,14z
	 M22.4,13.8c-0.2,0-0.4,0.2-0.4,0.4v3.3h-0.8v-3.2c0-0.2-0.2-0.4-0.4-0.4h-0.9l1.7-2.2l1.7,2.2L22.4,13.8z"/>
<path class="st0" d="M15.5,17.1h1.6c0.2,0,0.4-0.2,0.4-0.4v-4.9h1.3c0.2,0,0.3-0.1,0.4-0.2c0.1-0.1,0.1-0.3,0-0.4l-2.6-3.3
	c-0.2-0.2-0.4-0.2-0.6,0c0,0,0,0,0,0l-2.6,3.3c-0.1,0.2-0.1,0.4,0.1,0.6c0.1,0.1,0.2,0.1,0.2,0.1h1.3v4.9
	C15.1,16.9,15.2,17.1,15.5,17.1z M14.6,10.9l1.7-2.2l1.7,2.2h-0.9c-0.2,0-0.4,0.2-0.4,0.4v4.9h-0.8v-4.9c0-0.2-0.2-0.4-0.4-0.4H14.6
	z"/>
<path class="st0" d="M10.4,19.2c0.1-0.2,0.2-0.4,0.3-0.6h1.3c0.2,0,0.4-0.2,0.4-0.4V16c0-0.2-0.2-0.4-0.4-0.4h-1.3
	c-0.1-0.2-0.2-0.4-0.3-0.6l0.9-0.9c0.2-0.2,0.2-0.4,0-0.6c0,0,0,0,0,0L9.7,12c-0.2-0.2-0.4-0.2-0.6,0c0,0,0,0,0,0l-0.9,0.9
	c-0.2-0.1-0.4-0.2-0.6-0.3v-1.3c0-0.2-0.2-0.4-0.4-0.4H5.1c-0.2,0-0.4,0.2-0.4,0.4v1.3c-0.2,0.1-0.4,0.2-0.6,0.3L3.1,12
	c-0.2-0.2-0.4-0.2-0.6,0c0,0,0,0,0,0L1,13.5c-0.2,0.2-0.2,0.4,0,0.6c0,0,0,0,0,0L1.9,15c-0.1,0.2-0.2,0.4-0.2,0.6H0.4
	C0.2,15.6,0,15.8,0,16v2.1c0,0.2,0.2,0.4,0.4,0.4h1.3c0.1,0.2,0.2,0.4,0.2,0.6L1,20.1c-0.2,0.2-0.2,0.4,0,0.6c0,0,0,0,0,0l1.5,1.5
	c0.2,0.2,0.4,0.2,0.6,0c0,0,0,0,0,0L4,21.3c0.2,0.1,0.4,0.2,0.6,0.3v1.3c0,0.2,0.2,0.4,0.4,0.4h2.2c0.2,0,0.4-0.2,0.4-0.4v-1.2
	c0.2-0.1,0.4-0.2,0.6-0.3l0.9,0.9c0.2,0.2,0.4,0.2,0.6,0c0,0,0,0,0,0l1.5-1.5c0.2-0.2,0.2-0.4,0-0.6c0,0,0,0,0,0L10.4,19.2z
	 M9.4,21.3l-0.8-0.8c-0.1-0.1-0.3-0.2-0.5-0.1c-0.3,0.2-0.6,0.3-1,0.4c-0.2,0-0.3,0.2-0.3,0.4v1.2H5.5v-1.2c0-0.2-0.1-0.4-0.3-0.4
	c-0.4-0.1-0.7-0.2-1-0.4c-0.2-0.1-0.4-0.1-0.5,0.1l-0.8,0.8l-0.9-0.9l0.8-0.8c0.1-0.1,0.2-0.3,0.1-0.5c-0.2-0.3-0.3-0.6-0.4-1
	c0-0.2-0.2-0.3-0.4-0.3H0.8v-1.3H2c0.2,0,0.4-0.1,0.4-0.3c0.1-0.4,0.2-0.7,0.4-1c0.1-0.2,0.1-0.4-0.1-0.5l-0.8-0.8l0.9-0.9l0.8,0.8
	c0.1,0.1,0.3,0.2,0.5,0.1c0.3-0.2,0.6-0.3,1-0.4c0.2,0,0.3-0.2,0.3-0.4v-1.2h1.3v1.2c0,0.2,0.1,0.4,0.3,0.4c0.4,0.1,0.7,0.2,1,0.4
	c0.2,0.1,0.4,0.1,0.5-0.1l0.8-0.8l0.9,0.9l-0.8,0.8c-0.1,0.1-0.2,0.3-0.1,0.5c0.2,0.3,0.3,0.7,0.4,1c0,0.2,0.2,0.3,0.4,0.3h1.2v1.3
	h-1.1c-0.2,0-0.3,0.1-0.4,0.3c-0.1,0.4-0.2,0.7-0.4,1c-0.1,0.2-0.1,0.4,0.1,0.5l0.8,0.8L9.4,21.3z"/>
<path class="st0" d="M5.3,6.4c-0.2,0-0.4,0.2-0.4,0.4v2.4c0,0.2,0.2,0.4,0.4,0.4h4.9c0.2,0,0.4-0.2,0.4-0.4V6.9
	c0-0.2-0.2-0.4-0.4-0.4l0,0H5.3z M9.8,8.9H5.7V7.3h4.1V8.9z"/>
<path class="st0" d="M6.1,14.3c-1.6,0-2.9,1.3-2.9,2.9c0,1.6,1.3,2.9,2.9,2.9C7.7,20,9,18.7,9,17.1c0,0,0,0,0,0
	C9,15.5,7.7,14.3,6.1,14.3z M6.1,19.2c-1.1,0-2-0.9-2-2c0-1.1,0.9-2,2-2c1.1,0,2,0.9,2,2C8.1,18.2,7.2,19.1,6.1,19.2L6.1,19.2z"/>
<path class="st0" d="M15.6,3.2h1.2c0.2,0,0.4-0.2,0.4-0.4c0-0.2-0.2-0.4-0.4-0.4h-1.2c-0.2,0-0.4,0.2-0.4,0.4
	C15.2,3,15.3,3.2,15.6,3.2z"/>
<path class="st0" d="M18.8,3.2h1.2c0.2,0,0.4-0.2,0.4-0.4c0-0.2-0.2-0.4-0.4-0.4c0,0,0,0,0,0h-1.2c-0.2,0-0.4,0.2-0.4,0.4
	C18.4,3,18.6,3.2,18.8,3.2z"/>
</svg>
