<?xml version="1.0" encoding="utf-8"?>
<!-- Generator: Adobe Illustrator 25.2.1, SVG Export Plug-In . SVG Version: 6.00 Build 0)  -->
<svg version="1.1" id="Layer_1" xmlns="http://www.w3.org/2000/svg" xmlns:xlink="http://www.w3.org/1999/xlink" x="0px" y="0px"
	 viewBox="0 0 22.3 23.2" style="enable-background:new 0 0 22.3 23.2;" xml:space="preserve">
<style type="text/css">
	.st0{fill:#e3204a;}
</style>
<path class="st0" d="M2.5,14.2c0.9-0.1,1.6-0.9,1.5-1.7C4,11.7,3.3,11.1,2.5,11c-0.9-0.1-1.7,0.6-1.7,1.5c-0.1,0.9,0.6,1.7,1.5,1.7
	C2.4,14.2,2.5,14.2,2.5,14.2z M2.5,11.7c0.5,0,0.9,0.4,0.9,0.9c0,0.5-0.4,0.9-0.9,0.9s-0.9-0.4-0.9-0.9l0,0
	C1.6,12.1,2,11.7,2.5,11.7z"/>
<path class="st0" d="M0.7,16.6c0-0.7,0.6-1.3,1.3-1.3h1.3c0.1,0,0.2,0,0.3-0.1c0.1-0.1,0.1-0.2,0.1-0.2c0-0.2-0.1-0.3-0.3-0.3H1.9
	c-1.1,0-1.9,0.9-1.9,1.9l0,0v0.1h0.7V16.6z"/>
<path class="st0" d="M2.6,23.2h2.2v-2.7c0-2.5,2-4.6,4.5-4.6c0,0,0,0,0,0h4.2c2.5,0,4.5,2,4.5,4.5c0,0,0,0,0,0v2.7h2.2v-2.7
	c0-3.7-3-6.7-6.7-6.7H9.3c-2.1,0-4,1-5.3,2.6c-0.9,1.2-1.4,2.6-1.4,4.1C2.6,20.6,2.6,23.2,2.6,23.2z"/>
<path class="st0" d="M20.3,14.7h-1.3c-0.2,0-0.3,0.2-0.3,0.3c0,0.2,0.2,0.3,0.4,0.3h1.3c0.7,0,1.3,0.6,1.3,1.3v0.1h0.7v-0.1
	C22.3,15.5,21.4,14.7,20.3,14.7C20.4,14.7,20.4,14.7,20.3,14.7z"/>
<path class="st0" d="M19.8,14.2c0.9,0,1.6-0.7,1.6-1.6c0-0.9-0.7-1.6-1.6-1.6c-0.9,0-1.6,0.7-1.6,1.6c0,0,0,0,0,0
	C18.1,13.5,18.9,14.2,19.8,14.2z M19.8,11.7c0.5,0,0.9,0.4,0.9,0.9c0,0.5-0.4,0.9-0.9,0.9c-0.5,0-0.9-0.4-0.9-0.9
	S19.2,11.7,19.8,11.7L19.8,11.7z"/>
<path class="st0" d="M11.4,13c3.6,0,6.5-2.9,6.5-6.5S15,0,11.4,0S4.9,2.9,4.9,6.5C4.9,10.1,7.8,13,11.4,13z M11.4,2.2
	c2.4,0,4.3,1.9,4.3,4.3s-1.9,4.3-4.3,4.3c-2.4,0-4.3-1.9-4.3-4.3c0,0,0,0,0,0C7.1,4.1,9,2.2,11.4,2.2z"/>
</svg>
